<svg id="Layer_1" data-name="Layer 1" xmlns="http://www.w3.org/2000/svg" viewBox="0 0 283.42 126.82"><defs><style>.cls-1{fill:#242449;}.cls-2{fill:#161633;}.cls-3{fill:#f7c1a3;}.cls-4{fill:#7eacf1;}.cls-5{fill:#5966d6;}.cls-6{fill:#fff;}.cls-7{fill:#f4cdaf;}.cls-8{fill:#f5ceb0;}.cls-9{fill:#1c2d3e;}.cls-10{fill:#bdbfc1;}.cls-11{fill:none;}.cls-12{fill:#f1caac;}.cls-13{fill:#f17187;}.cls-14{fill:#e55978;}.cls-15{fill:#3b308a;}.cls-16{fill:#424dbf;}.cls-17{fill:#af7447;}.cls-18{fill:#f6d5d5;}</style></defs><polygon class="cls-1" points="274.45 78.81 275.51 85.18 273.38 121.1 269.8 120.44 263.87 79.61 274.45 78.81"/><polygon class="cls-1" points="256.87 77.61 256.18 101.42 263.13 121.98 267.18 120.67 263.77 102.34 266.9 77.41 256.87 77.61"/><path class="cls-2" d="M289.25,125l-4.85,1.94,1.63,2.95-2.54,1.39s-.24,1.23.61,1.75,6.39-3.53,6.39-3.53Z" transform="translate(-22.06 -6.22)"/><path class="cls-2" d="M296.51,125.66l-5.26.77.69,3.22-2.87.77s-.59,1.14.08,1.83,7.21-2,7.21-2Z" transform="translate(-22.06 -6.22)"/><path class="cls-1" d="M286.29,45a11.76,11.76,0,0,0,1.59,3,18.61,18.61,0,0,1,1-5.76c0-.14.09-.31,0-.43a.59.59,0,0,0-.4-.2C285.69,41,285.64,43.15,286.29,45Z" transform="translate(-22.06 -6.22)"/><path class="cls-3" d="M287.81,48.05a3.73,3.73,0,0,0,1.72,2.19,3.45,3.45,0,0,0,3.16-.16c2.77-1.46,7.57-9.5.35-11.47C286.49,36.81,286.61,44.72,287.81,48.05Z" transform="translate(-22.06 -6.22)"/><path class="cls-1" d="M293.51,48.08c.43.56,1.41.43,2.11.14a6.35,6.35,0,0,0,4.05-6.83c-.46-2.26-3.68-4-4.42-1.24-.26,1,.39,2.37.2,3.47A14.68,14.68,0,0,1,293.51,48.08Z" transform="translate(-22.06 -6.22)"/><path class="cls-1" d="M286.46,35.71c-3.28,1.58-4.75,5.07-7.76,7a12.67,12.67,0,0,0,8.67.18c2.7-.94,9.12-1.51,8.28-4.77S289.34,34.32,286.46,35.71Z" transform="translate(-22.06 -6.22)"/><path class="cls-4" d="M299.21,56.27c1.88,2.84,1.87,6.06,1.61,9.14-.59,7,.18,15.06-2.59,21.72-5.21,0-15.2-2.08-20.39-2.55-1-6.06-.42-9.6.15-16.47.28-3.38.88-7.92,2.26-11.15,1.12-2.64,4.13-6.05,8.66-5.94C293.16,51.12,297.5,53.68,299.21,56.27Z" transform="translate(-22.06 -6.22)"/><path class="cls-3" d="M290.72,52.43a1.62,1.62,0,0,1-1.62-.37c-.49-.41-.34-.55-.23-1.15.15-.88.42-1.77.63-2.65l2.81.51s-.57,2.38-.61,2.54A1.65,1.65,0,0,1,290.72,52.43Z" transform="translate(-22.06 -6.22)"/><polygon class="cls-3" points="240.6 52.52 238.41 50.64 234.95 50.71 234.56 52.24 239.78 54.2 240.6 52.52"/><polygon class="cls-4" points="266.35 46.84 263.85 44.88 250.41 54.2 240.75 51.25 237.64 54.7 250.57 61.3 264.24 53.68 266.35 46.84"/><polygon class="cls-1" points="96.9 120.93 100.48 122.64 100.17 124.11 93.81 123.35 94.15 121.24 96.9 120.93"/><polygon class="cls-1" points="80.72 122.54 78.24 122.51 77.63 124.34 77.69 124.36 77.67 124.36 81.82 126.44 83.78 126.6 84 124.66 83.46 124.32 80.72 122.54"/><path class="cls-4" d="M110.46,94.2c.39,0,1.49,12.43,1.49,12.43l-7.75,22.65-4.47-.76,2.72-22.62S93,96.41,95.72,89.32C99.84,91.05,110.46,94.2,110.46,94.2Z" transform="translate(-22.06 -6.22)"/><path class="cls-4" d="M121.61,94.3l.91,11.12L120,127.54l-4.6-.2s-1.11-21-1.56-21.38-4.37-11.42-4.37-11.42Z" transform="translate(-22.06 -6.22)"/><path class="cls-5" d="M115.57,99.38C101,99.14,99.9,92.73,96.68,92s-1.53-4-1.53-4,.6-1.49.87-2.27c1.87-5.59,7.5-12.78,7.5-12.78a50.93,50.93,0,0,1,8-8,29.36,29.36,0,0,1,14.82-5.48c11,3,7.15,7.53,7.27,8.72-3.63,2.9-6.26,7.24-8.2,11.9A24.5,24.5,0,0,0,124.14,92c.24,1.66.52,3.1.8,4.35C125,98,123.19,99.48,115.57,99.38Z" transform="translate(-22.06 -6.22)"/><path class="cls-6" d="M126.36,60.52s2.45-1.18,4,.86c1.84,2.48-8.6,13.64-8.35,37.51-2.74.48-9.79,1.63-17.07-1.36C106.57,90.44,113.71,69.05,126.36,60.52Z" transform="translate(-22.06 -6.22)"/><path class="cls-1" d="M131.76,53c1.23.84,2.31,2.63,1.88,4-.2.68-.76,1.13-.95,1.87-.38,1.44-3.26,2.5-2,4.17a5.1,5.1,0,0,0,2.94,1.53.87.87,0,0,0,.42,0,.53.53,0,0,0,.42-.43,2.08,2.08,0,0,0,0-.61c-.26-2.11,1.38-4.23,2-6.23a5.82,5.82,0,0,0-1-5.92c-1.35.11-1.9-.12-2.77.79Z" transform="translate(-22.06 -6.22)"/><path class="cls-7" d="M128.86,61.43a5.42,5.42,0,0,0,4.2-1.75,8.33,8.33,0,0,0,1.9-3.84c1.11-4.58-5.33-6.06-8.73-3.26C123.28,55,124.18,61.11,128.86,61.43Z" transform="translate(-22.06 -6.22)"/><path class="cls-1" d="M120.84,60.57a5,5,0,0,0,2.48-.62c1.24-.78,2-2.53,2.73-3.64a6.38,6.38,0,0,1,3.2-2.88,4.19,4.19,0,0,1,2.73.22c.62.21.55.42,1.21.33a2.88,2.88,0,0,0,1.45-1,2.15,2.15,0,0,0,.25-2.08,3.59,3.59,0,0,0-2.24-2.21,9.54,9.54,0,0,0-10.79,2.43c-1.34,1.45-1.82,3.43-3.16,4.8-.84.84-1.87,1.23-2.66,2.17-2.06,2.42-5.44,5.25-6.66,8.09a.42.42,0,0,0,0,.33c.12.2.47.13.7,0l4.12-1.79a6.73,6.73,0,0,0,1.52-.82c1.11-.89,1.49-2.41,2.83-3A6.74,6.74,0,0,1,120.84,60.57Z" transform="translate(-22.06 -6.22)"/><polygon class="cls-5" points="93.18 60.36 82.17 58.11 79.22 45.36 82.88 45.64 85.7 53.97 99.98 54.32 100.8 55.27 93.18 60.36"/><path class="cls-8" d="M106,50.6l-.36-3.34-2.72-1.81-.16,1,1,.84a2.87,2.87,0,0,0,.92,1.46,10,10,0,0,1-.6,1.74Z" transform="translate(-22.06 -6.22)"/><path class="cls-9" d="M170.65,126.09l3.16,1.76,1.09,1.4a13.2,13.2,0,0,1-1.75.63c-.63.14-5.63-.33-5.63-.33l-.14-2.55Z" transform="translate(-22.06 -6.22)"/><path class="cls-9" d="M154.87,128l1.56,1.53s1.27,2.06.64,2-4.1.13-4.33-.22-2.07-1.54-2.31-1.78,0-2.17,0-2.17Z" transform="translate(-22.06 -6.22)"/><path class="cls-10" d="M163.8,87.49l-3.92,20.76-5,19.76-4.45-.22.86-20.86s-3.21-19.17-3.23-24.85Z" transform="translate(-22.06 -6.22)"/><polygon class="cls-10" points="151.57 82.3 149.78 120.6 145.19 120.78 142.76 101.32 139.21 84.15 148.68 73.52 151.57 82.3"/><polygon class="cls-11" points="128.31 49.3 128.31 49.3 128.31 49.3 128.31 49.3"/><path class="cls-4" d="M171.23,68.35c-2.41-10.19.65-15.1-4.62-17.93,0,0-8.57-2.05-14,1.36l-.22.15-2,3.59-1.51,16.11s-4.21,21.16-2,21.33c2.53.19,14.16-4.53,16.37-4.42s9,1.17,15.34-.72C184.07,86.2,173.63,78.54,171.23,68.35Z" transform="translate(-22.06 -6.22)"/><polygon class="cls-6" points="138.51 43.89 136.84 43.94 136.67 45.41 142.8 60.32 144.17 53.86 142.67 44.47 138.51 43.89"/><polygon class="cls-6" points="143.54 66.05 141.18 82.3 146.16 82.91 149.6 82.67 145.25 68.58 143.54 66.05"/><path class="cls-12" d="M162.83,50.75l-3.43.13a12.68,12.68,0,0,1-.2-2.38c-1-.17-2.14-.47-2.44-1.3a2.07,2.07,0,0,1-.08-.82c0-1.14-.33-2.3.12-3.42.15-.37,0-.8.22-1.16a3,3,0,0,1,1.86-1.2,8,8,0,0,1,5.87.51,3,3,0,0,1,1.13,1,3.24,3.24,0,0,1,.21,2.13l-.27,2a2.39,2.39,0,0,1-1.06,2,7.64,7.64,0,0,0-1.29.49C162.84,49.19,163.08,50.07,162.83,50.75Z" transform="translate(-22.06 -6.22)"/><path class="cls-1" d="M167.74,36a3.72,3.72,0,0,1-.79-.13c-.86-.25-1.49-.83-2.4-1.06a9,9,0,0,0-5.72.55c-1.61.73-3.86,1.13-5.27,2.06a4.11,4.11,0,0,0-1.33,1.52,5.37,5.37,0,0,0,1,6.27,9.55,9.55,0,0,0,1.24,1,7.59,7.59,0,0,0,3.17,1.61c-.11-.85-1.44-3.44-.8-4.23.85-1,2.7-1.17,4-1.16,1.6,0,2.86-.52,4.45-.57a3.63,3.63,0,0,0,2.3-.45,12.07,12.07,0,0,0,2.3-3.09,1.7,1.7,0,0,0-.63-1.89A2.56,2.56,0,0,0,167.74,36Z" transform="translate(-22.06 -6.22)"/><path class="cls-4" d="M178.49,58.38,168.1,50.19,165.61,52l8.59,12.49,3.88.33s1.12-3.48,1.35-3.85Z" transform="translate(-22.06 -6.22)"/><path class="cls-13" d="M153.8,88.14a10.24,10.24,0,0,0-7-2.18,10,10,0,0,0-6.67,2.79,7.54,7.54,0,0,0-2.5,6.07,7.78,7.78,0,0,0,3.2,5.81,10.07,10.07,0,0,0,2.53,1.46,10.53,10.53,0,0,0,4.44.71A9.87,9.87,0,0,0,154.5,100,7.54,7.54,0,0,0,157,94,7.8,7.8,0,0,0,153.8,88.14Z" transform="translate(-22.06 -6.22)"/><path class="cls-14" d="M157,94a7.8,7.8,0,0,0-3.2-5.81,10.25,10.25,0,0,0-2-1.25,7.43,7.43,0,0,1,1.79,4.45,7.52,7.52,0,0,1-2.5,6.07,10,10,0,0,1-6.67,2.79,10.62,10.62,0,0,1-4.43-.71l-.5-.22a9.62,9.62,0,0,0,1.41,1.36,10.07,10.07,0,0,0,2.53,1.46,10.53,10.53,0,0,0,4.44.71A9.87,9.87,0,0,0,154.5,100,7.54,7.54,0,0,0,157,94Z" transform="translate(-22.06 -6.22)"/><path class="cls-13" d="M228.86,57.73c-.73-7-4.74-13.35-11.93-19s-14.94-8.49-23-8.47A29.34,29.34,0,0,0,175.06,37a3.6,3.6,0,0,0,.06,5.79l4.28,3.36a5,5,0,0,0,6,0,15.69,15.69,0,0,1,9.75-3.54c4.24,0,8.48,1.6,12.6,4.84s6.34,6.75,6.62,10.47-1.42,7.38-5,10.88c-5,4.84-10,6.85-14.76,6-5-.93-11.08-4.19-18-9.71l-1.86-1.45a5,5,0,0,0-6.38.28L153.82,78a3.58,3.58,0,0,0-1.15,2.84,3.73,3.73,0,0,0,1.48,2.71l4.34,3.41a4.4,4.4,0,0,0,1.15.66,5,5,0,0,0,5.23-.94l9.43-9.1a.38.38,0,0,1,.45,0C183,83.7,190.87,87,198,87.39c7.62.4,14.93-2.72,21.73-9.28S229.59,64.72,228.86,57.73Z" transform="translate(-22.06 -6.22)"/><path class="cls-14" d="M228.86,57.73c-.73-7-4.74-13.35-11.93-19a39.74,39.74,0,0,0-14-7.25,43.61,43.61,0,0,1,6.68,4.36c7.19,5.64,11.21,12,11.94,19s-2.33,13.85-9.1,20.38-14.1,9.68-21.73,9.28A30.37,30.37,0,0,1,184,83.32a35.48,35.48,0,0,0,14,4.07c7.62.4,14.93-2.72,21.73-9.28S229.59,64.72,228.86,57.73Z" transform="translate(-22.06 -6.22)"/><polygon class="cls-4" points="132.34 44.66 127.42 45.98 115.65 63.45 116.45 66.83 131.7 73.47 133.84 69.86 124.21 63.45 130.1 56.46 132.37 45.28 132.34 44.66"/><polygon class="cls-3" points="145.84 44.12 143.34 41.79 140.94 42.37 140.27 44.47 142.41 44.81 144.42 45.17 145.84 44.12"/><polygon class="cls-12" points="133.63 70.22 136.04 70.65 135.65 71.88 137.73 74 134.88 74.9 132.08 72.83 133.63 70.22"/><path class="cls-13" d="M105.29,62.4A5.3,5.3,0,0,0,102,64.75a4.17,4.17,0,0,0-.4,3.71,4.9,4.9,0,0,0,2.7,2.88,6.18,6.18,0,0,0,4.26.35,6.32,6.32,0,0,0,1.59-.66,4.91,4.91,0,0,0,1.72-1.7,4.15,4.15,0,0,0,.4-3.7,4.94,4.94,0,0,0-2.7-2.89A6.12,6.12,0,0,0,105.29,62.4Z" transform="translate(-22.06 -6.22)"/><path class="cls-14" d="M109.55,62.74a6.12,6.12,0,0,0-4.26-.34,5.92,5.92,0,0,0-1.32.5,6.15,6.15,0,0,1,3.07.55,4.94,4.94,0,0,1,2.7,2.89,4.15,4.15,0,0,1-.4,3.7,4.91,4.91,0,0,1-1.72,1.7l-.27.15a7.22,7.22,0,0,0,1.19-.2,6.32,6.32,0,0,0,1.59-.66,4.91,4.91,0,0,0,1.72-1.7,4.15,4.15,0,0,0,.4-3.7A4.94,4.94,0,0,0,109.55,62.74Z" transform="translate(-22.06 -6.22)"/><path class="cls-13" d="M110.34,21c-4.18-1.76-9-1.93-14.35-.51s-9.28,3.91-11.67,7.4A12.11,12.11,0,0,0,82.55,38a2.3,2.3,0,0,0,1.23,1.48,3,3,0,0,0,2.08.22L89,38.87a2.26,2.26,0,0,0,1.81-2.59A6.48,6.48,0,0,1,91.73,31c1.25-1.84,3.44-3.18,6.5-4a11.76,11.76,0,0,1,7.93.26,8.77,8.77,0,0,1,4.68,5.42c1.26,3.59.93,6.33-1,8.13S104.17,44.38,99,45.71l-1.38.37a2.23,2.23,0,0,0-1.73,2.83l3.65,10.45a2.35,2.35,0,0,0,1.27,1.34,2.9,2.9,0,0,0,2,.17L106,60a2.66,2.66,0,0,0,.71-.3,2.14,2.14,0,0,0,1-2.54l-2.36-6.77a.16.16,0,0,1,.11-.2c6-1.73,10.19-4.13,12.54-7.1,2.5-3.17,2.9-7.25,1.19-12.13S114.53,22.76,110.34,21Z" transform="translate(-22.06 -6.22)"/><path class="cls-14" d="M110.34,21c-4.18-1.76-9-1.93-14.35-.51a23.23,23.23,0,0,0-8.27,3.85,27.74,27.74,0,0,1,4.46-1.58c5.35-1.42,10.18-1.25,14.35.51s7.18,5.12,8.88,10,1.31,9-1.19,12.13A14.4,14.4,0,0,1,111.53,48a18.19,18.19,0,0,0,6.5-4.84c2.5-3.17,2.9-7.25,1.19-12.13S114.53,22.76,110.34,21Z" transform="translate(-22.06 -6.22)"/><path class="cls-13" d="M252.17,67.38a7.39,7.39,0,0,0-5.07,1.12,5.64,5.64,0,0,0-2.65,3.93,5.2,5.2,0,0,0,1.29,4.42,6.85,6.85,0,0,0,4.51,2.31,8.13,8.13,0,0,0,2.15,0A7.42,7.42,0,0,0,255.33,78,5.66,5.66,0,0,0,258,74.1a5.21,5.21,0,0,0-1.28-4.42A6.93,6.93,0,0,0,252.17,67.38Z" transform="translate(-22.06 -6.22)"/><path class="cls-14" d="M256.69,69.68a6.93,6.93,0,0,0-4.52-2.3,8.68,8.68,0,0,0-1.76,0,6.62,6.62,0,0,1,3.07,2,5.25,5.25,0,0,1,1.29,4.42,5.66,5.66,0,0,1-2.65,3.93,7.14,7.14,0,0,1-2.92,1.11l-.39,0a8.93,8.93,0,0,0,1.44.31,8.13,8.13,0,0,0,2.15,0A7.42,7.42,0,0,0,255.33,78,5.66,5.66,0,0,0,258,74.1,5.21,5.21,0,0,0,256.69,69.68Z" transform="translate(-22.06 -6.22)"/><path class="cls-13" d="M282.39,23.71c-3.59-3.83-8.85-6.2-15.63-7s-12.62.16-17.35,3a16.79,16.79,0,0,0-8,10.44,2.51,2.51,0,0,0,.48,2.2,3.31,3.31,0,0,0,2.19,1.18l4,.5a3.23,3.23,0,0,0,3.55-2.06,9,9,0,0,1,4.1-5.44c2.48-1.47,5.7-2,9.59-1.5s6.78,1.78,8.64,3.87,2.52,4.81,2,8.12c-.74,4.56-2.74,7.45-6,8.58-3.37,1.2-8.4,1.36-14.95.5l-1.74-.22a3.15,3.15,0,0,0-3.61,2.37l-2.16,13.24a2.5,2.5,0,0,0,.61,2.06,3.29,3.29,0,0,0,2.11,1.09l4.09.5a3.49,3.49,0,0,0,1,0A3,3,0,0,0,258,62.7l1.4-8.58a.22.22,0,0,1,.25-.17c7.66.76,13.76,0,18.14-2.24,4.65-2.39,7.52-6.73,8.53-12.92S286,27.56,282.39,23.71Z" transform="translate(-22.06 -6.22)"/><path class="cls-14" d="M282.39,23.71c-3.59-3.83-8.85-6.2-15.63-7a31.05,31.05,0,0,0-11.47.55,34.92,34.92,0,0,1,5.89.26c6.79.83,12,3.2,15.63,7s4.92,8.93,3.92,15.09-3.87,10.53-8.53,12.92a20.15,20.15,0,0,1-4.51,1.64,25.12,25.12,0,0,0,10.09-2.45c4.65-2.39,7.52-6.73,8.53-12.92S286,27.56,282.39,23.71Z" transform="translate(-22.06 -6.22)"/><polygon class="cls-1" points="236.15 121.38 238.4 120.82 242.03 125.61 238.4 125.61 236.22 124.64 236.15 121.38"/><path class="cls-15" d="M218,117.93s-3.15,2-3.11,3.78c0,0-.33,3.74.52,5.21l4.74,3.76,8.75-.49,2.83-10.8Z" transform="translate(-22.06 -6.22)"/><path class="cls-16" d="M227.59,120.33s-3.78-.77-5.08,1.47l-2.57,4.14,4.54,5.26,34.37-.09-.07-3.58-11.12-2.73a6.24,6.24,0,0,0,2.28-2.4c.88-1.65.2-2.87-.51-4.42-.22-.47-1.26-3.11-2.15-2.9Z" transform="translate(-22.06 -6.22)"/><polygon class="cls-17" points="185.28 73.21 183.69 70.75 184.87 70.11 186.38 71.59 186.78 71.06 187.84 73.31 186.72 74.12 185.28 73.21"/><polygon class="cls-18" points="208.32 78.91 197.42 81.46 187.78 72.45 185.64 74.14 194.52 89.05 207.84 86.69 208.32 78.91"/><path class="cls-18" d="M219.64,111.91c2.37-5.75,2.83-11.85,3.68-17.88a14.41,14.41,0,0,1,1.43-5.21,7,7,0,0,1,4.62-3.27,36,36,0,0,1,7.77-.56c2.37,0,4.18,7.82,6.46,11.65a40.82,40.82,0,0,1,3.75,7,48,48,0,0,1,2.16,7.45c.7,3.82,2.76,6.53.65,7.76l-.55.14a57.12,57.12,0,0,1-10.51,2,48.27,48.27,0,0,1-9.54-.11c-4.32-.5-8.51-1.15-12.26-3.23Z" transform="translate(-22.06 -6.22)"/><path class="cls-17" d="M238.51,79.24c-1.21-3.59-7.12-5-8.66-.9a7.16,7.16,0,0,0-.52,3.81,4.12,4.12,0,0,0,2.41,3.07h0l-.2,1a.27.27,0,0,0,0,.2.38.38,0,0,0,.24.11l1.35.21a1.68,1.68,0,0,0,.67,0,1.09,1.09,0,0,0,.73-1c0-.11,0-.21,0-.32C237.29,84.69,239.31,81.59,238.51,79.24Z" transform="translate(-22.06 -6.22)"/><path class="cls-1" d="M231.49,73c-1.08-.17-2.05.73-3.07,1.18-.85.38-1.8.46-2.68.77s-1.76,1-1.81,1.85a5,5,0,0,0-2.79-.73c-1,.14-1.95,1.14-1.59,2s1.45,1,1.8,1.73c.55,1.2-1.13,3-.06,3.79.26.19.62.25.87.45a2,2,0,0,1,.53,1,4.28,4.28,0,0,0,4.38,2.65,4.65,4.65,0,0,0,2.64-2.54c.56-1.36-.27-1.86-.36-3.15a5.2,5.2,0,0,1,1.53-4,4.25,4.25,0,0,1,2.66-1.33c.41,0,.27.27.74,0a1.82,1.82,0,0,0,.55-.76C233.76,75.15,232.92,73.2,231.49,73Z" transform="translate(-22.06 -6.22)"/><path class="cls-1" d="M243.21,75.13a15.35,15.35,0,0,1,1.69.37c.8.33.72,1.06.92,1.7a6.48,6.48,0,0,0,1.07,2.21,7.82,7.82,0,0,0,1.35,1,1.62,1.62,0,0,1,.83,1.32c0,.51-.44,1-.52,1.48a6.56,6.56,0,0,1-.26,1.94,2.32,2.32,0,0,1-.69,1.09,2.2,2.2,0,0,1-1.71.23,4.06,4.06,0,0,0-1.73-.11c-1.25.33-1.06,1.42-1.42,2.32a3.13,3.13,0,0,1-3.82,1.59,2.81,2.81,0,0,1-1.73-2.87c.05-.59.35-1.14.39-1.74s-.3-1.39.31-1.83a4.62,4.62,0,0,0,.48-.28.94.94,0,0,0,.22-.37,1.5,1.5,0,0,0-.27-1.37c-.22-.27-.55-.47-.68-.79a2.54,2.54,0,0,1,0-1.19,2.33,2.33,0,0,0-1.38-2.33,8.1,8.1,0,0,1-1.67-.82c-.08-.06-1.26-1-1.29-.83a2,2,0,0,1,.56-.92,4.57,4.57,0,0,1,1.43-1.15c1.82-.85,1.82,1.24,3.27,1a3.35,3.35,0,0,0,.94-.48,2.36,2.36,0,0,1,1.91.09A13.84,13.84,0,0,0,243.21,75.13Z" transform="translate(-22.06 -6.22)"/><path class="cls-13" d="M210.58,117.74a4.94,4.94,0,0,0-3.43.46,3.9,3.9,0,0,0-2,2.45,3.38,3.38,0,0,0,.53,3,4.38,4.38,0,0,0,2.81,1.76,5,5,0,0,0,1.42.11,4.83,4.83,0,0,0,2-.57,3.85,3.85,0,0,0,2-2.45,3.36,3.36,0,0,0-.53-3A4.36,4.36,0,0,0,210.58,117.74Z" transform="translate(-22.06 -6.22)"/><path class="cls-14" d="M213.39,119.51a4.36,4.36,0,0,0-2.81-1.77,5.79,5.79,0,0,0-1.16-.12,4.2,4.2,0,0,1,1.88,1.49,3.36,3.36,0,0,1,.53,3,3.87,3.87,0,0,1-2,2.45,4.83,4.83,0,0,1-2,.57h-.26a5.3,5.3,0,0,0,.93.28,5,5,0,0,0,1.42.11,4.83,4.83,0,0,0,2-.57,3.85,3.85,0,0,0,2-2.45A3.36,3.36,0,0,0,213.39,119.51Z" transform="translate(-22.06 -6.22)"/><path class="cls-13" d="M233.68,90.58c-2.09-2.72-5.38-4.57-9.8-5.5a18,18,0,0,0-11.66,1,11.55,11.55,0,0,0-6,6.45,1.62,1.62,0,0,0,.16,1.48,2.12,2.12,0,0,0,1.36.9l2.62.55a2.19,2.19,0,0,0,2.49-1.17,6.17,6.17,0,0,1,3.1-3.36,10,10,0,0,1,6.44-.46,8.62,8.62,0,0,1,5.42,3A6.16,6.16,0,0,1,228.5,99c-.82,3-2.35,4.77-4.55,5.34s-5.64.43-9.9-.5l-1.14-.23a2.14,2.14,0,0,0-2.55,1.36L208,113.55a1.65,1.65,0,0,0,.25,1.39,2.1,2.1,0,0,0,1.31.83l2.67.56a2.31,2.31,0,0,0,.64,0,2.08,2.08,0,0,0,1.91-1.41l1.54-5.58a.15.15,0,0,1,.18-.1c5,.92,9.08.76,12.13-.48,3.25-1.32,5.45-4,6.57-8.06S235.78,93.32,233.68,90.58Z" transform="translate(-22.06 -6.22)"/><path class="cls-14" d="M233.68,90.58c-2.09-2.72-5.38-4.57-9.8-5.5a20.58,20.58,0,0,0-7.61-.27,23.58,23.58,0,0,1,3.88.5c4.41.92,7.71,2.77,9.8,5.5s2.6,6.16,1.49,10.17-3.32,6.73-6.56,8a14.35,14.35,0,0,1-3.1.84,17.1,17.1,0,0,0,6.83-1.06c3.25-1.32,5.45-4,6.57-8.06S235.78,93.32,233.68,90.58Z" transform="translate(-22.06 -6.22)"/><path class="cls-13" d="M133.31,37a4.26,4.26,0,0,0-2.91,1,3.25,3.25,0,0,0-1.27,2.47,3.21,3.21,0,0,0,1.1,2.54,4.24,4.24,0,0,0,2.84,1.1,5.21,5.21,0,0,0,1.27-.13A4.11,4.11,0,0,0,136,43.1a3.21,3.21,0,0,0,1.26-2.47,3.15,3.15,0,0,0-1.09-2.53A4.14,4.14,0,0,0,133.31,37Z" transform="translate(-22.06 -6.22)"/><path class="cls-14" d="M136.15,38.1a4.14,4.14,0,0,0-2.84-1.1,4.39,4.39,0,0,0-1,.08,4,4,0,0,1,2,1,3.19,3.19,0,0,1,1.1,2.53,3.28,3.28,0,0,1-1.27,2.48,4.16,4.16,0,0,1-1.64.82l-.23.05a5,5,0,0,0,.88.1,5.21,5.21,0,0,0,1.27-.13A4.11,4.11,0,0,0,136,43.1a3.21,3.21,0,0,0,1.26-2.47A3.15,3.15,0,0,0,136.15,38.1Z" transform="translate(-22.06 -6.22)"/><path class="cls-13" d="M147.83,9.48c-2.41-2.06-5.7-3.15-9.76-3.25a15.68,15.68,0,0,0-10,2.74,9.61,9.61,0,0,0-3.92,6.63,1.52,1.52,0,0,0,.45,1.27,2.11,2.11,0,0,0,1.38.57l2.42.06a1.84,1.84,0,0,0,1.93-1.42,5.14,5.14,0,0,1,2-3.45,8.68,8.68,0,0,1,5.54-1.43,8.12,8.12,0,0,1,5.4,1.78,5.72,5.72,0,0,1,1.78,4.68c-.09,2.73-1.05,4.55-2.86,5.41s-4.85,1.28-8.78,1.15l-1,0a1.81,1.81,0,0,0-2,1.61l-.27,7.94a1.54,1.54,0,0,0,.52,1.18,2,2,0,0,0,1.32.52l2.46.06a2.17,2.17,0,0,0,.57-.06,1.72,1.72,0,0,0,1.38-1.54l.17-5.15a.13.13,0,0,1,.14-.11c4.58,0,8.12-.79,10.53-2.37,2.57-1.67,3.93-4.4,4.06-8.11S150.24,11.54,147.83,9.48Z" transform="translate(-22.06 -6.22)"/><path class="cls-14" d="M147.83,9.48c-2.41-2.06-5.7-3.15-9.76-3.25a18,18,0,0,0-6.73,1,20.84,20.84,0,0,1,3.5-.19c4.06.11,7.35,1.2,9.76,3.25s3.58,5,3.46,8.68-1.49,6.44-4.06,8.12a11.75,11.75,0,0,1-2.54,1.23,14.57,14.57,0,0,0,5.77-2c2.57-1.67,3.93-4.4,4.06-8.11S150.24,11.54,147.83,9.48Z" transform="translate(-22.06 -6.22)"/><polygon class="cls-17" points="197.39 101.84 194.59 101.26 194.82 100.21 196.84 100.23 196.68 99.69 199 100.44 198.94 101.56 197.39 101.84"/><polygon class="cls-18" points="215.9 91.8 211.22 99.71 198.32 99.96 198.31 102.19 213.61 104.84 219.01 97.36 215.9 91.8"/><path class="cls-5" d="M135,77.3l-1.27-12.15L130.51,65l-2.23,9.36-2.71,3.94,4.15,3.49s3.53-1.9,4-2Z" transform="translate(-22.06 -6.22)"/><polygon class="cls-3" points="111.45 58.92 111.43 55.73 109.2 54.74 107.08 55.89 108.38 57.41 109.59 58.85 111.45 58.92"/><path class="cls-4" d="M305.48,59.07l-3.86-11.72-3.23.41-.27,14.56,3.1,2.06s3.06-2.44,3.47-2.65Z" transform="translate(-22.06 -6.22)"/><polygon class="cls-3" points="279.3 41.16 278.59 38.03 276.19 37.42 274.35 38.89 275.96 40.17 277.45 41.4 279.3 41.16"/><polygon class="cls-1" points="8.97 76.37 7.91 82.74 10.04 118.66 13.62 118 19.55 77.17 8.97 76.37"/><polygon class="cls-1" points="26.55 75.17 27.24 98.98 20.29 119.54 16.24 118.23 19.65 99.9 16.52 74.97 26.55 75.17"/><path class="cls-2" d="M38.29,122.52l4.85,1.94-1.63,3,2.54,1.39s.24,1.23-.61,1.75S37.05,127,37.05,127Z" transform="translate(-22.06 -6.22)"/><path class="cls-2" d="M31,123.22l5.25.77-.69,3.22,2.87.77s.6,1.14-.07,1.83-7.22-2-7.22-2Z" transform="translate(-22.06 -6.22)"/><path class="cls-1" d="M41.25,42.56a11.8,11.8,0,0,1-1.6,3,18.6,18.6,0,0,0-1-5.76.5.5,0,0,1,0-.43.62.62,0,0,1,.41-.2C41.85,38.6,41.9,40.71,41.25,42.56Z" transform="translate(-22.06 -6.22)"/><path class="cls-3" d="M39.73,45.61A3.76,3.76,0,0,1,38,47.8a3.42,3.42,0,0,1-3.16-.16c-2.77-1.46-7.57-9.5-.35-11.47C41.05,34.37,40.93,42.28,39.73,45.61Z" transform="translate(-22.06 -6.22)"/><path class="cls-1" d="M34,45.64c-.43.56-1.41.43-2.11.14A6.33,6.33,0,0,1,27.87,39c.46-2.27,3.68-4,4.42-1.25.26,1-.39,2.37-.2,3.47A14.68,14.68,0,0,0,34,45.64Z" transform="translate(-22.06 -6.22)"/><path class="cls-1" d="M41.08,33.27c3.28,1.58,4.75,5.07,7.76,7a12.67,12.67,0,0,1-8.67.19c-2.71-1-9.12-1.52-8.28-4.78S38.2,31.89,41.08,33.27Z" transform="translate(-22.06 -6.22)"/><path class="cls-4" d="M28.33,53.83c-1.88,2.84-1.87,6.06-1.61,9.14.58,7-.18,15.06,2.58,21.73,5.22,0,15.21-2.09,20.4-2.55,1-6.07.42-9.61-.15-16.48-.28-3.38-.88-7.92-2.26-11.15-1.13-2.64-4.13-6.05-8.66-5.94C34.38,48.68,30,51.24,28.33,53.83Z" transform="translate(-22.06 -6.22)"/><path class="cls-3" d="M36.82,50a1.6,1.6,0,0,0,1.62-.37c.48-.41.33-.54.23-1.15-.15-.88-.42-1.77-.63-2.64l-2.81.5.61,2.54A1.61,1.61,0,0,0,36.82,50Z" transform="translate(-22.06 -6.22)"/><polygon class="cls-3" points="42.82 50.08 45.01 48.2 48.47 48.28 48.86 49.8 43.64 51.77 42.82 50.08"/><polygon class="cls-4" points="17.08 44.41 19.57 42.44 33.01 51.77 42.67 48.81 45.78 52.26 32.85 58.86 19.18 51.24 17.08 44.41"/><path class="cls-4" d="M22.06,56.64l3.86-11.73,3.23.41.27,14.56-3.1,2.06s-3.06-2.44-3.48-2.65Z" transform="translate(-22.06 -6.22)"/><polygon class="cls-3" points="4.12 38.72 4.83 35.59 7.23 34.98 9.07 36.45 7.46 37.73 5.97 38.96 4.12 38.72"/><path class="cls-13" d="M66.52,43.34a4.29,4.29,0,0,0-2.91.95,3.26,3.26,0,0,0-1.26,2.48,3.19,3.19,0,0,0,1.1,2.53,4.22,4.22,0,0,0,2.84,1.1,4.69,4.69,0,0,0,1.26-.13,4.27,4.27,0,0,0,1.65-.82A3.27,3.27,0,0,0,70.46,47a3.19,3.19,0,0,0-1.1-2.53A4.22,4.22,0,0,0,66.52,43.34Z" transform="translate(-22.06 -6.22)"/><path class="cls-14" d="M69.36,44.44a4.22,4.22,0,0,0-2.84-1.1,5,5,0,0,0-1,.08,4.16,4.16,0,0,1,2,1A3.2,3.2,0,0,1,68.54,47a3.25,3.25,0,0,1-1.26,2.47,4.16,4.16,0,0,1-1.64.82l-.23,0a4.93,4.93,0,0,0,.88.1,4.69,4.69,0,0,0,1.26-.13,4.27,4.27,0,0,0,1.65-.82A3.27,3.27,0,0,0,70.46,47,3.19,3.19,0,0,0,69.36,44.44Z" transform="translate(-22.06 -6.22)"/><path class="cls-13" d="M81,15.82c-2.41-2.05-5.69-3.15-9.76-3.25a15.67,15.67,0,0,0-10,2.75,9.5,9.5,0,0,0-3.92,6.62,1.51,1.51,0,0,0,.45,1.27,2,2,0,0,0,1.38.57l2.42.06a1.85,1.85,0,0,0,1.93-1.42,5.15,5.15,0,0,1,2-3.45,8.71,8.71,0,0,1,5.55-1.43,8.19,8.19,0,0,1,5.39,1.78A5.7,5.7,0,0,1,78.26,24c-.09,2.74-1.05,4.56-2.85,5.41s-4.86,1.29-8.79,1.15l-1.05,0a1.8,1.8,0,0,0-1.95,1.6l-.26,7.94a1.49,1.49,0,0,0,.51,1.18,2,2,0,0,0,1.33.52l2.45.06a1.78,1.78,0,0,0,.57-.06,1.7,1.7,0,0,0,1.38-1.54l.18-5.14a.12.12,0,0,1,.13-.12c4.58,0,8.13-.78,10.54-2.36,2.56-1.68,3.93-4.41,4-8.12S83.46,17.89,81,15.82Z" transform="translate(-22.06 -6.22)"/><path class="cls-14" d="M81,15.82c-2.41-2.05-5.69-3.15-9.76-3.25a18.48,18.48,0,0,0-6.73,1,22,22,0,0,1,3.5-.19c4.07.11,7.35,1.2,9.76,3.26s3.59,5,3.46,8.68-1.49,6.43-4,8.11a11.3,11.3,0,0,1-2.54,1.23,14.68,14.68,0,0,0,5.77-2c2.56-1.68,3.93-4.41,4-8.12S83.46,17.89,81,15.82Z" transform="translate(-22.06 -6.22)"/></svg>