<svg id="Layer_1" data-name="Layer 1" xmlns="http://www.w3.org/2000/svg" viewBox="0 0 297.13 128.64"><defs><style>.cls-1{fill:#bbbabf;opacity:0.4;}.cls-2{fill:#232323;}.cls-3{fill:#ddd;}.cls-4{fill:#fff;}.cls-5{fill:#6fc5ff;}.cls-6{fill:#f7605c;}.cls-7{fill:#e8b470;}.cls-8{fill:#2a78b7;}.cls-9{fill:#b2b2b2;}.cls-10{fill:#999;}.cls-11{fill:#ff8383;}.cls-12{fill:#000206;}.cls-13{fill:#045999;}.cls-14{fill:#ffc5b3;}.cls-15{fill:#898989;}.cls-16{fill:#472e2c;}.cls-17{fill:#d89c55;}.cls-18{fill:#df3f33;}.cls-19{fill:#cc2723;}.cls-20{fill:#bc7a39;}.cls-21{fill:#cc8c46;}.cls-22{fill:#43b2ef;}.cls-23{fill:#333;}.cls-24{fill:#c1c1c1;}.cls-25{fill:#ffad97;}</style></defs><path class="cls-1" d="M283.25,110.92c0,5.26-7.59,9.53-16.94,9.53s-16.94-4.27-16.94-9.53,7.58-9.54,16.94-9.54S283.25,105.65,283.25,110.92Z" transform="translate(-16.23 -7.02)"/><polygon class="cls-1" points="200.69 112.77 124.17 67.99 97.11 83.48 173.64 128.26 200.69 112.77"/><polygon class="cls-1" points="246.56 88.83 219.71 73.02 199.22 84.54 226.08 100.34 246.56 88.83"/><polygon class="cls-1" points="105.55 113.15 29.03 68.37 1.96 83.86 78.5 128.64 105.55 113.15"/><polygon class="cls-2" points="292.81 22.18 282.93 0.88 274.8 11.44 274.44 11.16 283.02 0 293.23 21.98 292.81 22.18"/><polygon class="cls-3" points="269.04 1.65 269.04 45.6 297.13 62 297.13 17.88 269.04 1.65"/><polygon class="cls-4" points="270.53 5.04 270.53 44.8 295.18 59.19 295.18 19.28 270.53 5.04"/><polygon class="cls-5" points="283.13 23.64 271.62 17 271.62 15.29 283.13 21.94 283.13 23.64"/><polygon class="cls-6" points="287.89 29.95 271.62 20.56 271.62 18.86 287.89 28.25 287.89 29.95"/><polygon class="cls-7" points="292.45 36.14 271.62 24.12 271.62 22.42 292.45 34.44 292.45 36.14"/><polygon class="cls-8" points="284.86 33.62 271.62 25.98 271.62 27.68 284.86 35.32 284.86 33.62"/><polygon class="cls-5" points="279.17 35.43 271.62 31.08 271.62 29.38 279.17 33.73 279.17 35.43"/><polygon class="cls-6" points="290.8 45.71 271.62 34.64 271.62 32.94 290.8 44.01 290.8 45.71"/><polygon class="cls-7" points="287.89 47.59 271.62 38.2 271.62 36.5 287.89 45.89 287.89 47.59"/><polygon class="cls-8" points="292.45 53.78 271.62 41.76 271.62 40.06 292.45 52.08 292.45 53.78"/><polygon class="cls-2" points="294.02 56.99 271.48 43.98 271.48 13.15 271.76 13.15 271.76 43.82 294.16 56.75 294.02 56.99"/><path class="cls-2" d="M290.85,19.2l.72-.79a.68.68,0,0,0,.25-.55.67.67,0,0,0-.3-.59.54.54,0,0,0-.22-.08c-.06,0-.07,0-.07.12v.35l-.37-.25v-.77a1.24,1.24,0,0,1,.73.19,1.43,1.43,0,0,1,.69,1.26,1,1,0,0,1-.31.74l-.58.58.91.52v.47l-1.45-.83Z" transform="translate(-16.23 -7.02)"/><path class="cls-2" d="M294.3,20c0,1.14-.3,1.46-.85,1.14s-.83-1-.83-2.09.34-1.41.85-1.11S294.3,18.84,294.3,20Zm-.44-.24c0-.88-.16-1.22-.4-1.35s-.4,0-.4.94.15,1.19.4,1.33S293.86,20.65,293.86,19.74Z" transform="translate(-16.23 -7.02)"/><path class="cls-2" d="M295.16,19.58l-.42.05-.16-.46.66-.17.36.21v2.67l.37.24v.41l-1.26-.73v-.4l.35.18c.07,0,.1,0,.1-.1Z" transform="translate(-16.23 -7.02)"/><path class="cls-2" d="M297.46,21.16v.9l.32.19v.46l-.32-.19V23l.3.2v.41l-1.06-.62v-.39l.22.1c.06,0,.1,0,.1-.07v-.32l-.92-.53v-.4l.68-1.51.34.42-.58,1.29.52.3v-.26l.15-.55Z" transform="translate(-16.23 -7.02)"/><path class="cls-2" d="M298,22.09l.95.54v.45l-.95-.55Z" transform="translate(-16.23 -7.02)"/><path class="cls-2" d="M299.27,24.06l.72-.8a.66.66,0,0,0,.25-.54.69.69,0,0,0-.3-.59.76.76,0,0,0-.22-.09c-.07,0-.07,0-.07.13v.34l-.37-.24V21.5a1.26,1.26,0,0,1,.73.19,1.43,1.43,0,0,1,.68,1.25,1,1,0,0,1-.3.74l-.59.58.91.52v.48l-1.44-.83Z" transform="translate(-16.23 -7.02)"/><path class="cls-2" d="M302.71,24.84c0,1.14-.3,1.45-.85,1.14s-.83-1-.83-2.09.34-1.41.86-1.11S302.71,23.7,302.71,24.84Zm-.43-.24c0-.88-.16-1.22-.4-1.36s-.41,0-.41,1,.15,1.19.4,1.33S302.28,25.51,302.28,24.6Z" transform="translate(-16.23 -7.02)"/><path class="cls-2" d="M303.58,24.44l-.42,0L303,24l.65-.16.36.2v2.67l.37.24v.41l-1.25-.72v-.4l.34.17c.07,0,.11,0,.11-.1Z" transform="translate(-16.23 -7.02)"/><path class="cls-2" d="M306.06,25.25v.4l-.83,2.22-.45-.26.85-2.13-.69-.4c-.06,0-.08,0-.08.1v.2l-.36-.25v-.79Z" transform="translate(-16.23 -7.02)"/><path class="cls-9" d="M43,67.85c-.43-3.34-.81-6.22-5.15-3.71l-2.13,1.23-3.29,1.9L30.3,68.5C26,71,25.59,74.32,25.15,78.16c-.39,3.49-1.29,13.59-1.29,13.69l.87-.55c0-.1.89-10,1.28-13.45.46-4.13.84-6.2,4.29-8.2l2.14-1.23,3.29-1.9,2.13-1.23c3.45-2,3.83-.35,4.3,3.24.39,3,1.26,11.88,1.27,12l.88-.46C44.3,80,43.41,70.88,43,67.85Z" transform="translate(-16.23 -7.02)"/><path class="cls-9" d="M43.43,80.5l1.31.76s-.19-6.19-.43-8.51S43,65.22,43,65.22l-.51.41Z" transform="translate(-16.23 -7.02)"/><path class="cls-9" d="M25.16,92.61l-1.3-.76s1.5-11.47,1.76-13.23,1.19-5.87,1.19-5.87l1.44.36A19.65,19.65,0,0,0,27,77.52C26.86,79.29,25.16,92.61,25.16,92.61Z" transform="translate(-16.23 -7.02)"/><path class="cls-10" d="M44.32,68.61c-.44-3.33-.81-6.22-5.15-3.71L37,66.13,33.74,68l-2.13,1.23c-4.34,2.51-4.72,5.83-5.15,9.66-.39,3.49-1.29,13.59-1.3,13.69l.88-.54c0-.11.88-10,1.27-13.46.47-4.13.85-6.2,4.3-8.19l2.13-1.23L37,67.28l2.13-1.23c3.45-2,3.83-.35,4.29,3.24.4,3,1.27,11.88,1.28,12l.88-.46C45.61,80.71,44.71,71.64,44.32,68.61Z" transform="translate(-16.23 -7.02)"/><path class="cls-6" d="M42.79,63,30.05,70.33c-4.6,2.66-6.26,2.4-7.74-1.18-1.36-3.3-5.43-14-6.08-15.77l1.59-.92c.05.11,4.44,11.88,5.8,15.17,1.23,3,2.38,3.14,6.43.79l12.74-7.35Z" transform="translate(-16.23 -7.02)"/><path class="cls-9" d="M47.63,73.4l-2.24,1.29-2.13,1.23c-4.34,2.51-4.71,5.82-5.15,9.66-.39,3.49-1.29,13.59-1.3,13.69l.88-.54c0-.11.88-10,1.27-13.46.47-4.13.85-6.2,4.3-8.19l2.13-1.23L48,74.33C47.88,74,47.75,73.71,47.63,73.4Z" transform="translate(-16.23 -7.02)"/><path class="cls-9" d="M38.12,100l-1.31-.76S38.32,87.8,38.58,86s1.18-5.87,1.18-5.87l1.45.36A19.1,19.1,0,0,0,40,84.94C39.81,86.71,38.12,100,38.12,100Z" transform="translate(-16.23 -7.02)"/><path class="cls-10" d="M47.71,74.87l-1,.59-2.13,1.23c-4.34,2.5-4.72,5.82-5.15,9.66-.4,3.48-1.29,13.58-1.3,13.68l.87-.54c0-.1.89-10,1.28-13.45.47-4.14.85-6.21,4.3-8.2l2.13-1.23L48,75.85C47.9,75.53,47.8,75.2,47.71,74.87Z" transform="translate(-16.23 -7.02)"/><path class="cls-11" d="M59.27,70.54,42.79,61.07l-8.3,4.79s4.51,13.52,6.33,14C45.61,81.15,59.27,70.54,59.27,70.54Z" transform="translate(-16.23 -7.02)"/><path class="cls-12" d="M63.66,77.55c-.72-.45-4.39,1.68-4.39,1.68l-5.06,1.7-.37,3.64a3,3,0,0,0,4.19.58c1.48-1,5-2.72,5.79-4.43S64.38,78,63.66,77.55Z" transform="translate(-16.23 -7.02)"/><path class="cls-12" d="M58.41,74.63c-.72-.46-4.38,1.68-4.38,1.68L49,78l-.38,3.64a3,3,0,0,0,4.19.57c1.49-1,5-2.72,5.79-4.42S59.14,75.08,58.41,74.63Z" transform="translate(-16.23 -7.02)"/><path class="cls-13" d="M55.16,63.63c-.56-3.35-.63-5-2.65-5.79-1.2-.48-5.65.68-8.5,1.3a11.68,11.68,0,0,0,1.36,7.66l2.83-1.53C48.54,66.11,55.18,63.77,55.16,63.63Z" transform="translate(-16.23 -7.02)"/><path class="cls-13" d="M54.56,74.3c-1,.61-1.92,1.2-2.86,1.85a29.63,29.63,0,0,1-3.54,2.19c.54.38,2.35,1.86,4.53.93,4.13-1.75,3.45-4.4,3.45-4.4S54.7,75.11,54.56,74.3Z" transform="translate(-16.23 -7.02)"/><path class="cls-13" d="M32.32,39c-1.69,1.46-3.64,8.78-3.88,10.82-.14,1.18-.51,5.06,2.08,6.1,2.16.87,2.45-1.62,3.15-2.82.89-1.51,1.27-8,1.27-8l1.37-6.66A4.24,4.24,0,0,0,32.32,39Z" transform="translate(-16.23 -7.02)"/><path class="cls-14" d="M40.44,26.65A3.79,3.79,0,0,0,35,28.5c-.66,1.4.28,5.17.42,7.81a6.47,6.47,0,0,1-.59,3.37l1.83.76a5.56,5.56,0,0,0,3.74,0l-.06-3.26a8.59,8.59,0,0,0,2.32-.61c.83-.76,1.27-3,.88-5.94C43,26.28,41,27,40.44,26.65Z" transform="translate(-16.23 -7.02)"/><path class="cls-13" d="M59.27,70.54c.11.64-4.12,2.27-4.44,3.57-.37,1.5-1,7.42-1,7.82.94.71,3.51.57,4.13.36a4.82,4.82,0,0,0,3.15-2.72c-.45-3.8.32-11.07.12-12.55-.46-3.39-1.13-6.08-3.16-6.89-1.43-.58-4.63-.13-8.53.94a36.94,36.94,0,0,0-8.29,3.79l-8.91.46s-.45,3.62,2.1,5.47,8,4.7,12.43,2.4c2.1-1.11,6.57-3.72,8.59-4.83C56,68.73,58.57,70.14,59.27,70.54Z" transform="translate(-16.23 -7.02)"/><path class="cls-15" d="M50.78,53.08l11,6.34c.24.15.44,0,.44-.33V50.31a1.07,1.07,0,0,0-.44-.85l-11-6.35c-.24-.14-.44,0-.44.34v8.78A1.09,1.09,0,0,0,50.78,53.08Z" transform="translate(-16.23 -7.02)"/><polygon class="cls-15" points="45.83 52.43 45.24 52.76 45.29 52.09 45.83 52.43"/><polygon class="cls-15" points="33.67 36.4 34.27 36.06 34.48 37.23 33.67 36.4"/><path class="cls-9" d="M50.18,53.42l11,6.35c.25.14.45,0,.45-.34V50.65a1.05,1.05,0,0,0-.45-.85l-11-6.35c-.24-.14-.44,0-.44.34v8.78A1.07,1.07,0,0,0,50.18,53.42Z" transform="translate(-16.23 -7.02)"/><polygon class="cls-12" points="33.89 45.4 45.01 51.81 45.01 43.31 33.89 36.9 33.89 45.4"/><path class="cls-16" d="M55,55.87l1.42.82c.07,0,.13,0,.13-.1h0a.33.33,0,0,0-.13-.26L55,55.51c-.07,0-.13,0-.13.1h0A.33.33,0,0,0,55,55.87Z" transform="translate(-16.23 -7.02)"/><polygon class="cls-4" points="34.48 45.73 44.44 51.49 44.44 43.74 34.48 37.99 34.48 45.73"/><path class="cls-15" d="M41.07,59.85,51.68,66a1.21,1.21,0,0,0,1.11,0l8.12-4.69c.33-.19.36-.48.08-.64L50.38,54.48a1.25,1.25,0,0,0-1.11.05l-8.12,4.68C40.82,59.4,40.78,59.69,41.07,59.85Z" transform="translate(-16.23 -7.02)"/><rect class="cls-15" x="60.45" y="60.18" width="0.73" height="0.73" transform="translate(105.41 114.06) rotate(180)"/><rect class="cls-15" x="40.88" y="58.88" width="0.73" height="0.73" transform="translate(66.25 111.47) rotate(180)"/><path class="cls-9" d="M41.07,59.18l10.61,6.13a1.21,1.21,0,0,0,1.11,0l8.12-4.69c.33-.19.36-.48.08-.64L50.38,53.81a1.25,1.25,0,0,0-1.11,0l-8.12,4.68C40.82,58.73,40.78,59,41.07,59.18Z" transform="translate(-16.23 -7.02)"/><polygon class="cls-10" points="28.18 50.27 38.7 56.34 44.04 53.26 33.52 47.18 28.18 50.27"/><polygon class="cls-10" points="28.77 53.87 32.5 56.02 34.49 54.87 30.77 52.72 28.77 53.87"/><polygon class="cls-15" points="43.58 53.24 42.85 52.82 42.32 53.13 43.05 53.55 43.58 53.24"/><polygon class="cls-15" points="42.81 53.69 42.08 53.26 41.55 53.57 42.29 53.99 42.81 53.69"/><polygon class="cls-15" points="42.05 54.13 41.05 53.56 40.53 53.86 41.52 54.44 42.05 54.13"/><polygon class="cls-15" points="32.55 48.65 32.07 48.37 30.78 49.12 31.26 49.4 32.55 48.65"/><polygon class="cls-15" points="41.28 54.57 40.29 54 39.76 54.31 40.75 54.88 41.28 54.57"/><polygon class="cls-15" points="40.51 55.02 39.2 54.26 38.67 54.57 39.98 55.32 40.51 55.02"/><polygon class="cls-15" points="32.48 50.38 30.52 49.25 29.99 49.55 31.95 50.69 32.48 50.38"/><polygon class="cls-15" points="39.74 55.46 39.01 55.04 38.48 55.34 39.22 55.77 39.74 55.46"/><polygon class="cls-15" points="42.66 52.72 41.93 52.29 41.4 52.6 42.13 53.02 42.66 52.72"/><polygon class="cls-15" points="41.9 53.16 41.16 52.73 40.63 53.04 41.37 53.46 41.9 53.16"/><polygon class="cls-15" points="41.73 52.18 41 51.76 40.47 52.06 41.21 52.48 41.73 52.18"/><polygon class="cls-15" points="40.97 52.62 40.23 52.2 39.7 52.5 40.44 52.93 40.97 52.62"/><polygon class="cls-15" points="40.82 51.65 40.08 51.23 39.55 51.53 40.29 51.95 40.82 51.65"/><polygon class="cls-15" points="40.05 52.09 39.31 51.67 38.79 51.97 39.52 52.4 40.05 52.09"/><polygon class="cls-15" points="39.89 51.12 39.16 50.69 38.63 51 39.36 51.42 39.89 51.12"/><polygon class="cls-15" points="39.12 51.56 38.39 51.13 37.86 51.44 38.6 51.86 39.12 51.56"/><polygon class="cls-15" points="38.97 50.59 38.24 50.16 37.71 50.47 38.45 50.89 38.97 50.59"/><polygon class="cls-15" points="38.21 51.03 37.47 50.6 36.94 50.91 37.68 51.33 38.21 51.03"/><polygon class="cls-15" points="38.05 50.05 37.31 49.63 36.78 49.93 37.52 50.35 38.05 50.05"/><polygon class="cls-15" points="37.28 50.49 36.54 50.07 36.02 50.37 36.75 50.8 37.28 50.49"/><polygon class="cls-15" points="40.85 53.44 40.11 53.02 39.59 53.32 40.32 53.74 40.85 53.44"/><polygon class="cls-15" points="40.08 53.88 39.34 53.46 38.82 53.76 39.55 54.19 40.08 53.88"/><polygon class="cls-15" points="39.92 52.9 39.19 52.48 38.66 52.78 39.39 53.21 39.92 52.9"/><polygon class="cls-15" points="39.15 53.35 38.42 52.92 37.89 53.23 38.62 53.65 39.15 53.35"/><polygon class="cls-15" points="39 52.37 38.27 51.95 37.74 52.25 38.47 52.68 39 52.37"/><polygon class="cls-15" points="38.23 52.82 37.5 52.39 36.97 52.7 37.7 53.12 38.23 52.82"/><polygon class="cls-15" points="38.08 51.84 37.34 51.41 36.81 51.72 37.55 52.14 38.08 51.84"/><polygon class="cls-15" points="37.31 52.28 36.57 51.86 36.05 52.16 36.78 52.59 37.31 52.28"/><polygon class="cls-15" points="37.16 51.31 36.42 50.88 35.9 51.19 36.63 51.61 37.16 51.31"/><polygon class="cls-15" points="36.39 51.75 35.66 51.33 35.13 51.63 35.86 52.06 36.39 51.75"/><polygon class="cls-15" points="36.23 50.77 35.5 50.35 34.97 50.65 35.7 51.08 36.23 50.77"/><polygon class="cls-15" points="35.46 51.22 34.73 50.79 34.2 51.1 34.93 51.52 35.46 51.22"/><polygon class="cls-15" points="35.31 50.24 34.57 49.82 34.05 50.12 34.78 50.55 35.31 50.24"/><polygon class="cls-15" points="34.54 50.68 33.81 50.26 33.28 50.56 34.01 50.99 34.54 50.68"/><polygon class="cls-15" points="38.95 54.11 38.21 53.69 37.68 53.99 38.42 54.42 38.95 54.11"/><polygon class="cls-15" points="38.02 53.58 37.28 53.16 36.76 53.46 37.49 53.88 38.02 53.58"/><polygon class="cls-15" points="37.1 53.05 36.37 52.63 35.84 52.93 36.57 53.35 37.1 53.05"/><polygon class="cls-15" points="36.18 52.52 35.44 52.09 34.91 52.4 35.65 52.82 36.18 52.52"/><polygon class="cls-15" points="35.26 51.98 34.52 51.56 33.99 51.87 34.73 52.29 35.26 51.98"/><polygon class="cls-15" points="34.33 51.45 33.59 51.02 33.07 51.33 33.8 51.75 34.33 51.45"/><polygon class="cls-15" points="33.41 50.92 32.67 50.49 32.15 50.8 32.88 51.22 33.41 50.92"/><polygon class="cls-15" points="34.38 49.71 33.65 49.28 33.12 49.59 33.85 50.01 34.38 49.71"/><polygon class="cls-15" points="33.61 50.15 32.88 49.73 32.35 50.03 33.09 50.45 33.61 50.15"/><polygon class="cls-15" points="33.46 49.18 32.73 48.75 32.2 49.06 32.94 49.48 33.46 49.18"/><polygon class="cls-15" points="32.7 49.62 31.96 49.2 31.43 49.5 32.17 49.92 32.7 49.62"/><polygon class="cls-15" points="37.13 49.52 36.39 49.09 35.87 49.4 36.6 49.82 37.13 49.52"/><polygon class="cls-15" points="36.36 49.96 35.63 49.54 35.1 49.84 35.83 50.27 36.36 49.96"/><polygon class="cls-15" points="36.19 48.98 35.45 48.55 34.93 48.86 35.66 49.28 36.19 48.98"/><polygon class="cls-15" points="35.42 49.42 34.69 49 34.16 49.3 34.89 49.72 35.42 49.42"/><polygon class="cls-15" points="35.27 48.45 34.54 48.02 34.01 48.33 34.74 48.75 35.27 48.45"/><polygon class="cls-15" points="34.5 48.89 33.77 48.47 33.24 48.77 33.97 49.19 34.5 48.89"/><polygon class="cls-15" points="34.34 47.91 33.61 47.49 33.08 47.79 33.81 48.22 34.34 47.91"/><polygon class="cls-15" points="33.58 48.35 32.84 47.93 32.31 48.23 33.05 48.66 33.58 48.35"/><polygon class="cls-15" points="38.83 54.93 38.09 54.51 37.56 54.81 38.3 55.23 38.83 54.93"/><polygon class="cls-15" points="37.9 54.4 37.16 53.97 36.63 54.28 37.37 54.7 37.9 54.4"/><polygon class="cls-15" points="33.09 51.62 32.35 51.19 31.82 51.5 32.56 51.92 33.09 51.62"/><polygon class="cls-15" points="32.17 51.09 31.43 50.66 30.9 50.97 31.64 51.39 32.17 51.09"/><polygon class="cls-15" points="31.24 50.55 30.5 50.13 29.98 50.43 30.71 50.85 31.24 50.55"/><polygon class="cls-15" points="30.33 50.03 29.77 49.7 29.24 50.01 29.8 50.33 30.33 50.03"/><polygon class="cls-15" points="36.97 53.86 33.26 51.72 32.73 52.02 36.44 54.16 36.97 53.86"/><polygon class="cls-12" points="43.2 54.93 44.24 54.33 44.24 53.99 43.2 54.6 43.2 54.93"/><polygon class="cls-12" points="41.99 55.63 43.03 55.03 43.03 54.69 41.99 55.29 41.99 55.63"/><path class="cls-8" d="M45.1,50.27c-.36-3.65-.43-5.93-1.12-7.44s-3.54-2.39-3.54-2.39l-5.19-1.78A8,8,0,0,0,31,45.13c-.18,2.13.49,7.45.46,13.82,0,6.2-.13,10.81,1.66,11.13,3.31.6,4.73,3.68,11.18,2.67,1.1-.18,5.07-2.93,5.66-6.54C49.17,61.44,45.62,55.45,45.1,50.27Z" transform="translate(-16.23 -7.02)"/><path class="cls-17" d="M41.16,32.61a1.66,1.66,0,0,0,.78-.45A8.86,8.86,0,0,1,42.85,29a3.12,3.12,0,0,0,.87-3.7c-2.67.19-5.71-1.24-8.12-.66-1.53.36-4.61,5.17-2,9.2,1.85,2.88,2.59,3.94,2.59,3.94s2.67-.25,3.22-3.89c.1-.67-1-2-.22-2.69S41.09,32.1,41.16,32.61Z" transform="translate(-16.23 -7.02)"/><path class="cls-9" d="M55.71,73.48c-.21.16-.41.33-.61.5a.84.84,0,0,1-.27.13c.11.53.2,1.15.29,1.84.39,3,1.26,11.88,1.27,12l.88-.46c0-.09-.91-9.16-1.3-12.19C55.89,74.65,55.81,74,55.71,73.48Z" transform="translate(-16.23 -7.02)"/><path class="cls-9" d="M56.06,73.19l-.59.48.92,14.25,1.3.76s-.19-6.19-.42-8.51C57.08,78.3,56.34,74.58,56.06,73.19Z" transform="translate(-16.23 -7.02)"/><path class="cls-10" d="M57.28,76a14.39,14.39,0,0,0-.68-3.29h0l-.89.73a11.34,11.34,0,0,1,.71,3.24c.39,3,1.27,11.88,1.27,12l.88-.46C58.56,88.13,57.67,79.06,57.28,76Z" transform="translate(-16.23 -7.02)"/><path class="cls-6" d="M24.13,71.75l16.69,9.62S37.19,72.12,36,69.21s-2.85-7.28-2.85-7.28L17.09,53.31Z" transform="translate(-16.23 -7.02)"/><path class="cls-18" d="M59.27,72.45,46.54,79.8c-4.61,2.66-6.27,2.4-7.75-1.17-1.36-3.31-5.42-14-6.08-15.78l1.6-.92c0,.11,4.43,11.88,5.79,15.17,1.24,3,2.38,3.14,6.44.8l12.73-7.36Z" transform="translate(-16.23 -7.02)"/><polygon class="cls-11" points="1.59 45.43 0 46.35 16.48 55.83 18.08 54.9 1.59 45.43"/><path class="cls-14" d="M52.59,55.44a13.6,13.6,0,0,1,3.44.78c1,.52.84,2.73.55,3.52-.1.26-.57,1.72-1.11,1.41s0-1.25,0-1.25-.8.91-1,.76c-.57-.33.21-1.12.21-1.12l-2-1.43Z" transform="translate(-16.23 -7.02)"/><path class="cls-13" d="M53.92,55.63a10.55,10.55,0,0,0-3.68-1.48c-.68-2.16-3.11-10.7-6.72-11.89-1.13-.38-2.35,2.43-2,5.22a37.25,37.25,0,0,0,2.66,9.25,5.89,5.89,0,0,0,3.09,3.34,7.41,7.41,0,0,0,5.63.19C55.5,59.39,56.1,56.94,53.92,55.63Z" transform="translate(-16.23 -7.02)"/><path class="cls-3" d="M34.08,39.42l1.06-1.9s2.47,1,3.9,1.5c2.41.79,2.87,2.27,2.87,2.27S37,41.62,34.08,39.42Z" transform="translate(-16.23 -7.02)"/><path class="cls-13" d="M34.08,38.25a10.68,10.68,0,0,0-1.5,2.3c-.5,1.15,3.53,2.93,5.94,2.66a40.88,40.88,0,0,0,5-1,2.42,2.42,0,0,0-2.07-1.66A40.64,40.64,0,0,1,34.08,38.25Z" transform="translate(-16.23 -7.02)"/><path class="cls-9" d="M69.94,83c-.43-3.35-.81-6.24-5.16-3.72l-2.14,1.23-3.3,1.91L57.2,83.64c-4.35,2.51-4.73,5.83-5.17,9.68-.39,3.5-1.29,13.63-1.3,13.73l.88-.55c0-.1.89-10,1.28-13.49.47-4.14.85-6.22,4.31-8.22l2.14-1.23,3.3-1.91,2.14-1.24c3.46-2,3.84-.35,4.31,3.25.39,3,1.27,11.91,1.27,12l.89-.47C71.24,95.11,70.34,86,69.94,83Z" transform="translate(-16.23 -7.02)"/><path class="cls-9" d="M70.36,95.67l1.31.76s-.19-6.21-.42-8.54-1.32-7.55-1.32-7.55l-.52.41Z" transform="translate(-16.23 -7.02)"/><path class="cls-9" d="M52,107.81l-1.31-.76s1.51-11.51,1.77-13.26,1.19-5.9,1.19-5.9l1.45.36a19.39,19.39,0,0,0-1.24,4.43C53.74,94.46,52,107.81,52,107.81Z" transform="translate(-16.23 -7.02)"/><path class="cls-10" d="M71.25,83.75c-.43-3.35-.81-6.24-5.16-3.73L64,81.26l-3.3,1.9L58.51,84.4c-4.35,2.51-4.73,5.84-5.17,9.69-.39,3.49-1.29,13.62-1.3,13.72l.88-.54c0-.1.89-10,1.28-13.49.47-4.15.85-6.23,4.31-8.22l2.14-1.24L64,82.41l2.14-1.23c3.46-2,3.84-.36,4.31,3.24.39,3,1.27,11.92,1.27,12l.89-.46C72.55,95.88,71.65,86.78,71.25,83.75Z" transform="translate(-16.23 -7.02)"/><path class="cls-6" d="M69.72,78.09,57,85.47c-4.62,2.66-6.29,2.41-7.77-1.18-1.37-3.32-5.44-14-6.1-15.82l1.6-.93c0,.12,4.45,11.92,5.81,15.22,1.24,3,2.39,3.15,6.46.8l12.77-7.38Z" transform="translate(-16.23 -7.02)"/><path class="cls-14" d="M78.3,95.37c1.41-.7,2.75-1.56,2.32-2.37a1.41,1.41,0,0,0-1.07-.59c-1.3.43-2,.72-2,.72a104.54,104.54,0,0,1,.69-10.67c.18-1-4.74-1.07-4.74-1.07a74.42,74.42,0,0,0,0,10.92,11.74,11.74,0,0,1,0,2.77c.33.14,1,.44,1.54.68A3.88,3.88,0,0,0,78.3,95.37Z" transform="translate(-16.23 -7.02)"/><path class="cls-12" d="M73.44,97.13c.47,1.12,1.55,1,3.75.22a19,19,0,0,0,4.94-2.51c1.38-1,1.4-1.16,1.58-1.86.26-1-1.16-1.51-3.52-.78l-.64.21a1.41,1.41,0,0,1,1.07.59c.43.81-.91,1.67-2.32,2.37a3.88,3.88,0,0,1-3.26.39c-.52-.24-1.21-.54-1.54-.68C73.35,96,73.15,96.45,73.44,97.13Z" transform="translate(-16.23 -7.02)"/><path class="cls-14" d="M84,98.68c1.41-.71,2.75-1.57,2.32-2.37a1.47,1.47,0,0,0-1.08-.6c-1.3.43-1.94.72-1.94.72S84,84.25,84.58,81.12c.18-1-5.1.87-5.1.87a108.2,108.2,0,0,0-.2,13.63,11,11,0,0,1-.06,2.76l1.54.68A3.93,3.93,0,0,0,84,98.68Z" transform="translate(-16.23 -7.02)"/><path class="cls-12" d="M79.16,100.43c.47,1.12,1.56,1,3.75.23a18.6,18.6,0,0,0,4.94-2.52c1.39-1,1.4-1.16,1.58-1.85.26-1-1.16-1.51-3.51-.78l-.65.2a1.47,1.47,0,0,1,1.08.6c.43.8-.91,1.66-2.32,2.37a3.93,3.93,0,0,1-3.27.38l-1.54-.68C79.08,99.32,78.88,99.76,79.16,100.43Z" transform="translate(-16.23 -7.02)"/><path class="cls-9" d="M82.94,90.42c-.44-3.34-.81-6.23-5.17-3.72l-2.13,1.24-3.31,1.9-2.14,1.24c-4.35,2.51-4.73,5.84-5.16,9.69-.4,3.49-1.29,13.62-1.3,13.72l.87-.54c0-.11.89-10,1.28-13.49.47-4.15.85-6.23,4.31-8.23L72.33,91l3.31-1.91,2.13-1.23c3.47-2,3.85-.36,4.31,3.24.4,3,1.27,11.92,1.28,12l.88-.46C84.23,102.55,83.33,93.46,82.94,90.42Z" transform="translate(-16.23 -7.02)"/><path class="cls-9" d="M83.36,103.11l1.31.76s-.19-6.21-.43-8.54-1.32-7.54-1.32-7.54l-.52.41Z" transform="translate(-16.23 -7.02)"/><path class="cls-9" d="M65,115.26l-1.31-.77s1.51-11.5,1.77-13.26,1.19-5.9,1.19-5.9l1.44.37a19.8,19.8,0,0,0-1.24,4.42C66.74,101.9,65,115.26,65,115.26Z" transform="translate(-16.23 -7.02)"/><path class="cls-10" d="M84.25,91.19c-.44-3.35-.81-6.24-5.17-3.72L77,88.7l-3.31,1.91L71.5,91.84c-4.35,2.52-4.73,5.84-5.16,9.69-.4,3.49-1.29,13.62-1.3,13.73l.87-.55c0-.1.89-10,1.28-13.49C67.66,97.08,68,95,71.5,93l2.14-1.24L77,89.86l2.13-1.24c3.47-2,3.84-.35,4.31,3.25.4,3,1.27,11.91,1.28,12l.88-.46C85.54,103.32,84.64,94.23,84.25,91.19Z" transform="translate(-16.23 -7.02)"/><path class="cls-11" d="M86.25,85.68l-16.53-9.5L61.4,81s4.52,13.55,6.34,14C72.55,96.32,86.25,85.68,86.25,85.68Z" transform="translate(-16.23 -7.02)"/><path class="cls-14" d="M67.35,41.59c.53.37,2.49.83,3.07,5.2.38,2.94-.59,4.25-1.43,5a4.17,4.17,0,0,1-1.7.38l.06,3.27s-3.06,2-5,2c-3.64,0-2-3.27-2-3.27a4.76,4.76,0,0,0,1.79-3.62c-.15-2.66-.81-5.73-.14-7.14A3.81,3.81,0,0,1,67.35,41.59Z" transform="translate(-16.23 -7.02)"/><path class="cls-19" d="M55.69,83.41c.56,4.08,5.69,5.26,9.61,5,3.72-.21,6.44-2.11,9.08-4.37-.49-3.41-1.63-5.56-2.86-8.73a15,15,0,0,1,.79-10.27c1.09-2.32-1-6.82-1.73-8.33s-3.24-2.14-3.24-2.14-3.17,1.85-5.28,1.33a1.94,1.94,0,0,1-1.39-2.24c.12-.71-.72,0-.72,0a9.16,9.16,0,0,0-2.44,5.44,52.56,52.56,0,0,0,.61,9.71,22.35,22.35,0,0,1-1.81,9.32A23.75,23.75,0,0,0,55.69,83.41Z" transform="translate(-16.23 -7.02)"/><path class="cls-14" d="M69.27,47.44s-1.15-2-1.65,0a2,2,0,0,0,1.14,2.44Z" transform="translate(-16.23 -7.02)"/><path class="cls-19" d="M59.83,87s2,3.37,11,1.36c8.22-1.84,13.75-3.47,13.87-5.93.2-4.16-1.13-6.38-5.65-7.86C75.7,73.53,69.27,74,69.27,74Z" transform="translate(-16.23 -7.02)"/><path class="cls-19" d="M71.19,74a4.57,4.57,0,0,1,.06,4.33c-1.17,2.45-2.52,3.19-3.71,4.71s3,1.93,4.13-.55,1.15-4.77,2.15-5.07,2.6,3.19,3.9,2.94-1.88-6.29-1.88-6.29Z" transform="translate(-16.23 -7.02)"/><path class="cls-4" d="M71.17,73.89a5.26,5.26,0,0,1-2,4.07c-2.93,2.24-9.31,1.45-9.31,1.45l-.2.77s7.54,1.67,10.66-1.28c2-1.94,1.4-5,1.4-5Z" transform="translate(-16.23 -7.02)"/><path class="cls-6" d="M51,86.9l16.74,9.64s-3.63-9.27-4.83-12.2S60.06,77,60.06,77L43.94,68.39Z" transform="translate(-16.23 -7.02)"/><path class="cls-18" d="M86.25,87.59,73.48,95c-4.62,2.66-6.29,2.41-7.77-1.18-1.36-3.32-5.44-14-6.1-15.83l1.6-.92c0,.12,4.45,11.92,5.81,15.22,1.24,3,2.39,3.14,6.46.8l12.77-7.38Z" transform="translate(-16.23 -7.02)"/><polygon class="cls-11" points="28.45 60.52 26.85 61.44 43.38 70.94 44.98 70.02 28.45 60.52"/><polygon class="cls-17" points="62.24 68.73 55.52 64.92 61.46 53.8 68.17 57.63 62.24 68.73"/><polygon class="cls-7" points="61.89 68.52 55.17 64.71 61.11 53.59 67.82 57.43 61.89 68.52"/><polygon class="cls-4" points="61.84 67.45 55.95 64.11 61.16 54.37 67.04 57.73 61.84 67.45"/><path class="cls-14" d="M81.87,69.38c-.37.23-1.19,1-1.73,1s-2.44-1.52-5-3C74,64.25,71.43,56.06,69.84,55.91c-1.08-.1-2.21,1.87-2.1,4.33s3,8.14,4.82,10.25c1.3,1.49,6.7,2.86,8.43,2.26S82.79,69.84,81.87,69.38Z" transform="translate(-16.23 -7.02)"/><path class="cls-14" d="M80.28,70.48s0-.92,0-1.4.35-.62.58-.21a11.87,11.87,0,0,1,.58,1.46A3.09,3.09,0,0,1,80.28,70.48Z" transform="translate(-16.23 -7.02)"/><path class="cls-2" d="M64,40.2c-4.57,1.11-6,5.81-5.77,9.68.16,2.59.26,3.65,3.54,5.17s7.13-.54,7.13-.54-1.17-1.19-.49-4.82a10.47,10.47,0,0,1,.82-2.31,3,3,0,0,0,1.34-2.09C70.85,42.21,68.65,39.07,64,40.2Z" transform="translate(-16.23 -7.02)"/><path class="cls-9" d="M99.75,100c-.44-3.34-.82-6.23-5.17-3.72l-2.14,1.24-3.3,1.9L87,100.7c-4.35,2.51-4.73,5.84-5.17,9.68-.39,3.5-1.29,13.63-1.3,13.73l.88-.54c0-.11.89-10,1.28-13.5.47-4.14.85-6.22,4.31-8.22l2.14-1.23,3.3-1.91,2.14-1.23c3.46-2,3.84-.36,4.31,3.24.39,3,1.27,11.92,1.28,12l.88-.46C101,112.17,100.14,103.08,99.75,100Z" transform="translate(-16.23 -7.02)"/><path class="cls-9" d="M100.17,112.73l1.31.76s-.2-6.21-.43-8.54-1.32-7.54-1.32-7.54l-.52.41Z" transform="translate(-16.23 -7.02)"/><path class="cls-9" d="M81.84,124.88l-1.31-.77s1.51-11.5,1.77-13.26,1.19-5.9,1.19-5.9l1.45.37a19.24,19.24,0,0,0-1.24,4.42C83.54,111.52,81.84,124.88,81.84,124.88Z" transform="translate(-16.23 -7.02)"/><path class="cls-10" d="M101.06,100.81c-.44-3.35-.82-6.24-5.17-3.72l-2.14,1.23-3.3,1.91-2.14,1.23c-4.35,2.52-4.73,5.84-5.17,9.69-.39,3.49-1.29,13.62-1.3,13.73l.88-.55c0-.1.89-10,1.28-13.49.47-4.14.85-6.22,4.31-8.22l2.14-1.24,3.3-1.9,2.14-1.24c3.46-2,3.84-.35,4.31,3.25.39,3,1.27,11.91,1.28,12l.88-.46C102.35,112.94,101.45,103.85,101.06,100.81Z" transform="translate(-16.23 -7.02)"/><path class="cls-14" d="M106.43,112.65c1.34-.67,2.6-1.48,2.2-2.24a1.34,1.34,0,0,0-1-.57c-1.23.41-1.85.68-1.85.68a96.91,96.91,0,0,1,.66-10.11c.17-1-4.5-1-4.5-1a71,71,0,0,0,0,10.35,10.47,10.47,0,0,1,0,2.62c.32.14,1,.42,1.46.65A3.72,3.72,0,0,0,106.43,112.65Z" transform="translate(-16.23 -7.02)"/><path class="cls-12" d="M101.82,114.32c.44,1.06,1.47,1,3.55.21a17.63,17.63,0,0,0,4.69-2.39c1.31-1,1.32-1.1,1.5-1.75.24-.92-1.1-1.44-3.34-.75l-.61.2a1.34,1.34,0,0,1,1,.57c.4.76-.86,1.57-2.2,2.24a3.72,3.72,0,0,1-3.1.37c-.49-.23-1.14-.51-1.46-.65C101.73,113.26,101.55,113.68,101.82,114.32Z" transform="translate(-16.23 -7.02)"/><path class="cls-14" d="M113.39,115.25c1.34-.67,2.61-1.49,2.2-2.25a1.33,1.33,0,0,0-1-.56c-1.23.4-1.85.68-1.85.68s.67-11.56,1.19-14.52c.18-1-4.83.83-4.83.83a102.58,102.58,0,0,0-.2,12.91,10.58,10.58,0,0,1,0,2.63l1.47.64A3.65,3.65,0,0,0,113.39,115.25Z" transform="translate(-16.23 -7.02)"/><path class="cls-12" d="M108.78,116.91c.44,1.06,1.47,1,3.55.22a18.24,18.24,0,0,0,4.69-2.39c1.31-1,1.32-1.1,1.5-1.76.24-.92-1.1-1.43-3.34-.74l-.61.2a1.33,1.33,0,0,1,1,.56c.41.76-.86,1.58-2.2,2.25a3.65,3.65,0,0,1-3.09.36l-1.47-.64C108.7,115.86,108.51,116.27,108.78,116.91Z" transform="translate(-16.23 -7.02)"/><path class="cls-20" d="M102.17,99.21s0,8.75,0,9.22,0,2.66,0,2.66,1.73,1.53,3.5.51a16.27,16.27,0,0,0,3-2.22l-1-15.2Z" transform="translate(-16.23 -7.02)"/><path class="cls-21" d="M108.42,101.73s0,8.75,0,9.22,0,2.66,0,2.66,1.74,1.53,3.5.51a16.14,16.14,0,0,0,3-2.22l-.75-16.16Z" transform="translate(-16.23 -7.02)"/><path class="cls-6" d="M99.52,95.15l-12.77,7.38c-4.62,2.66-6.29,2.41-7.77-1.18-1.37-3.31-5.44-14-6.1-15.82l1.6-.93c0,.12,4.45,11.93,5.81,15.22,1.24,3,2.39,3.15,6.46.8l12.77-7.38Z" transform="translate(-16.23 -7.02)"/><path class="cls-9" d="M112.74,107.49c-.44-3.35-.81-6.24-5.16-3.73L105.44,105l-3.31,1.91L100,108.14c-4.35,2.51-4.72,5.84-5.16,9.69-.4,3.49-1.29,13.62-1.3,13.72l.87-.54c0-.1.89-10,1.29-13.49.46-4.14.84-6.22,4.3-8.22l2.14-1.24,3.31-1.91,2.14-1.23c3.46-2,3.84-.36,4.3,3.25.4,3,1.27,11.91,1.28,12l.88-.46C114,119.62,113.14,110.53,112.74,107.49Z" transform="translate(-16.23 -7.02)"/><path class="cls-9" d="M113.16,120.17l1.31.77s-.19-6.22-.43-8.54-1.32-7.55-1.32-7.55l-.52.41Z" transform="translate(-16.23 -7.02)"/><path class="cls-9" d="M94.84,132.32l-1.31-.77s1.51-11.5,1.77-13.26,1.19-5.89,1.19-5.89l1.44.36a19.8,19.8,0,0,0-1.24,4.42C96.54,119,94.84,132.32,94.84,132.32Z" transform="translate(-16.23 -7.02)"/><path class="cls-10" d="M114.05,108.25c-.44-3.34-.81-6.23-5.16-3.72l-2.14,1.23-3.31,1.91-2.14,1.24c-4.35,2.51-4.72,5.83-5.16,9.68-.4,3.5-1.29,13.63-1.3,13.73l.87-.55c0-.1.89-10,1.29-13.49.46-4.14.84-6.22,4.3-8.22l2.14-1.23,3.31-1.91,2.14-1.24c3.46-2,3.84-.35,4.3,3.25.4,3,1.27,11.91,1.28,12l.88-.47C115.34,120.38,114.45,111.29,114.05,108.25Z" transform="translate(-16.23 -7.02)"/><path class="cls-11" d="M116.05,102.74l-16.53-9.5L91.2,98.05s4.53,13.55,6.34,14C102.35,113.38,116.05,102.74,116.05,102.74Z" transform="translate(-16.23 -7.02)"/><path class="cls-17" d="M94.24,72.72c-1.1-.52-2-2.45-4.18-.43-1.78,1.67-2.7,6.1.2,8.64S94.24,72.72,94.24,72.72Z" transform="translate(-16.23 -7.02)"/><path class="cls-14" d="M98.13,60.22c.5.35,2.37.79,2.91,4.93.37,2.78-.56,4-1.35,4.75a4.07,4.07,0,0,1-1.62.36l.06,3.1a5.25,5.25,0,0,1-3.56,0l-1.75-.72a6.16,6.16,0,0,0,.57-3.21c-.14-2.52-1-6.11-.4-7.45A3.61,3.61,0,0,1,98.13,60.22Z" transform="translate(-16.23 -7.02)"/><path class="cls-20" d="M102.87,90.94a73,73,0,0,1-7.24,1.46v10.38h.15A35.83,35.83,0,0,0,108.1,97.9C108.9,93.85,108.55,89.36,102.87,90.94Z" transform="translate(-16.23 -7.02)"/><path class="cls-21" d="M92.76,104c1.41.78,2.7,2.44,7.68,1.68S112,99,114,97.69c.56-4.28-.32-5.82-6-4.25-4.24,1.18-11,2.29-11,2.29s-6.47-3.3-7.42-.47C87.79,100.42,90.22,102.61,92.76,104Z" transform="translate(-16.23 -7.02)"/><path class="cls-15" d="M108.18,94.13l-4.45-2.57c-1-.63-.64-1.26-.18-2.14l4.08-7.79c.47-.89.83-1.72,2.07-1l4.6,2.61c1,.6.27,1.5-.2,2.39l-4.24,8.08C109.36,94.66,108.88,94.61,108.18,94.13Z" transform="translate(-16.23 -7.02)"/><path class="cls-9" d="M107.82,93.91l-4.45-2.56c-1-.64-.64-1.26-.17-2.15l4.08-7.78c.46-.89.82-1.73,2.07-1L114,83c1,.61.26,1.51-.2,2.4l-4.24,8.08C109,94.45,108.53,94.39,107.82,93.91Z" transform="translate(-16.23 -7.02)"/><polygon class="cls-4" points="92.82 85.88 87.33 82.76 92.19 73.67 97.68 76.8 92.82 85.88"/><polygon class="cls-4" points="90.16 85.43 88.88 84.69 89.14 84.23 90.42 84.96 90.16 85.43"/><path class="cls-14" d="M99.57,90.92l2.82.55c1.64.34,2,.46,2,.46s.25-.25-.15-.76a2.87,2.87,0,0,0-1.37-.73l1.74-1.23s-.47-2.52-2.61-2.93a5.92,5.92,0,0,0-3.51.29Z" transform="translate(-16.23 -7.02)"/><path class="cls-7" d="M89,95.42c.87,2.43,5.68,4.88,7.93,4.84A8.61,8.61,0,0,0,101.63,99c1.32-.94,1.85-1.47,1.24-4-.19-.79-2.14-8,0-12.5,1-2.2-1.31-6.19-2-7.62a5.93,5.93,0,0,0-2.75-2.31l-5.37-.63s-3.22,1-3.22,5.86a69.1,69.1,0,0,0,.94,8.83c.13,1,.49,3.42-1.22,7.82A4.92,4.92,0,0,0,89,95.42Z" transform="translate(-16.23 -7.02)"/><path class="cls-17" d="M92.33,72.31s.27.87,2,1.43a6.42,6.42,0,0,0,5.12-.4c0-1.15-1.39-1.66-1.39-1.66a5.18,5.18,0,0,1-3.38,0L92.92,71Z" transform="translate(-16.23 -7.02)"/><path class="cls-2" d="M95,58.9c-2.36.5-4.85,2-4,7a7.9,7.9,0,0,0,2,3.37A3.47,3.47,0,0,1,94.1,71c1.9-.23,3.69-3.22,4.73-4.31s2.21-1.51,2.34-2.93C101.45,60.8,99.39,58,95,58.9Z" transform="translate(-16.23 -7.02)"/><path class="cls-14" d="M100,65.76s-1.09-1.86-1.56,0a1.9,1.9,0,0,0,1.08,2.32Z" transform="translate(-16.23 -7.02)"/><path class="cls-6" d="M80.8,104l16.74,9.65s-3.63-9.28-4.83-12.21-2.85-7.3-2.85-7.3L73.74,85.46Z" transform="translate(-16.23 -7.02)"/><path class="cls-18" d="M116.05,104.65,103.28,112c-4.62,2.66-6.28,2.41-7.77-1.18-1.36-3.31-5.44-14-6.1-15.82L91,94.1c0,.12,4.45,11.92,5.81,15.22,1.24,3,2.39,3.15,6.46.8l12.77-7.38Z" transform="translate(-16.23 -7.02)"/><polygon class="cls-11" points="58.26 77.58 56.66 78.5 73.19 88 74.79 87.08 58.26 77.58"/><path class="cls-14" d="M110.22,88.7a9,9,0,0,0,1.23-1.39c.43-.65.68-.19.62.17a6.09,6.09,0,0,1-.43,1.26,2.3,2.3,0,0,1,1,.18,2.2,2.2,0,0,1-.46,3.29c-1.79,1.13-3.57-.72-3.57-.72Z" transform="translate(-16.23 -7.02)"/><path class="cls-17" d="M110.47,88.19c-1-.53-3.43-2.17-4.64-2.73A43.29,43.29,0,0,0,104,79c-1.28-3.28-2.58-5.34-4.51-4.6,0,0-1.22.69-1.32,3.59A14.06,14.06,0,0,0,100,86.2c.57,1,2.25,3.32,3.84,4.09a35,35,0,0,0,6.35,2.39A2.77,2.77,0,0,0,110.47,88.19Z" transform="translate(-16.23 -7.02)"/><path class="cls-2" d="M100.34,63a27.66,27.66,0,0,1-.85,5.89c-.72,2.33-2.61,6.85-1.95,7.67a1.55,1.55,0,0,0,1.67.44s-.08,1.84-1.67,2a2.17,2.17,0,0,1-1.91-.76,11.91,11.91,0,0,1-.8,3.59,2.54,2.54,0,0,1-3.22,1.35c.4-.49.72-.79.46-2.27a7.85,7.85,0,0,0-.57-1.91s-.84,1.07-1.72.9a2.32,2.32,0,0,1-1.57-.86s2-.58,2-2.3c0-2.88-1.27-7.85-.42-11.51s2-4.59,2-4.59Z" transform="translate(-16.23 -7.02)"/><path class="cls-9" d="M137.83,67c-.43-3.35-.81-6.24-5.16-3.73l-2.14,1.24-3.3,1.91-2.14,1.23c-4.35,2.51-4.73,5.84-5.17,9.69-.39,3.49-1.29,13.62-1.3,13.72l.88-.54c0-.1.89-10,1.28-13.49.47-4.15.85-6.23,4.31-8.22l2.14-1.24,3.3-1.91,2.14-1.23c3.46-2,3.84-.36,4.31,3.25.39,3,1.27,11.91,1.27,12l.89-.46C139.13,79.17,138.23,70.08,137.83,67Z" transform="translate(-16.23 -7.02)"/><path class="cls-9" d="M138.25,79.72l1.31.77s-.19-6.22-.42-8.54-1.33-7.55-1.33-7.55l-.51.41Z" transform="translate(-16.23 -7.02)"/><path class="cls-9" d="M119.93,91.87l-1.31-.77s1.51-11.5,1.77-13.26S121.58,72,121.58,72l1.45.36a19.24,19.24,0,0,0-1.24,4.42C121.63,78.51,119.93,91.87,119.93,91.87Z" transform="translate(-16.23 -7.02)"/><path class="cls-10" d="M139.14,67.8c-.43-3.34-.81-6.23-5.16-3.72l-2.14,1.23-3.3,1.91-2.14,1.24c-4.35,2.51-4.73,5.83-5.17,9.68-.39,3.5-1.29,13.63-1.3,13.73l.88-.55c0-.1.89-10,1.28-13.49.47-4.14.85-6.22,4.31-8.22l2.14-1.23,3.3-1.91L134,65.23c3.46-2,3.84-.35,4.31,3.25.39,3,1.27,11.91,1.27,12l.89-.47C140.44,79.93,139.54,70.84,139.14,67.8Z" transform="translate(-16.23 -7.02)"/><path class="cls-14" d="M144.52,79.65c1.33-.67,2.6-1.49,2.2-2.25a1.36,1.36,0,0,0-1-.57c-1.23.41-1.85.68-1.85.68a97.06,97.06,0,0,1,.66-10.11c.17-1-4.5-1-4.5-1a71,71,0,0,0,0,10.35,10.47,10.47,0,0,1,0,2.62l1.46.65A3.75,3.75,0,0,0,144.52,79.65Z" transform="translate(-16.23 -7.02)"/><path class="cls-12" d="M139.9,81.31c.45,1.06,1.48,1,3.56.21a17.69,17.69,0,0,0,4.68-2.38c1.32-1,1.33-1.1,1.5-1.76.25-.92-1.1-1.44-3.33-.74l-.61.19a1.36,1.36,0,0,1,1,.57c.4.76-.87,1.58-2.2,2.25a3.75,3.75,0,0,1-3.1.36L140,79.36C139.82,80.26,139.64,80.67,139.9,81.31Z" transform="translate(-16.23 -7.02)"/><path class="cls-14" d="M151.48,82.24c1.34-.67,2.61-1.48,2.2-2.25a1.36,1.36,0,0,0-1-.56c-1.23.4-1.85.68-1.85.68s.66-11.56,1.19-14.52c.17-1-4.83.83-4.83.83a102.75,102.75,0,0,0-.2,12.92,10.49,10.49,0,0,1-.05,2.62l1.46.64A3.67,3.67,0,0,0,151.48,82.24Z" transform="translate(-16.23 -7.02)"/><path class="cls-12" d="M146.87,83.9c.44,1.07,1.47,1,3.55.22a18.24,18.24,0,0,0,4.69-2.39c1.31-1,1.32-1.1,1.5-1.76.24-.92-1.1-1.43-3.34-.74l-.61.2a1.36,1.36,0,0,1,1,.56c.41.77-.86,1.58-2.2,2.25a3.67,3.67,0,0,1-3.1.36L146.92,82C146.79,82.85,146.6,83.26,146.87,83.9Z" transform="translate(-16.23 -7.02)"/><path class="cls-12" d="M140.25,66.2s.06,8.75,0,9.22,0,2.66,0,2.66,1.73,1.53,3.5.52a16.57,16.57,0,0,0,3-2.23l-1-15.2Z" transform="translate(-16.23 -7.02)"/><path class="cls-2" d="M146.51,68.72s.05,8.75,0,9.22,0,2.66,0,2.66,1.74,1.53,3.5.52a16.44,16.44,0,0,0,3-2.23l-.75-16.15Z" transform="translate(-16.23 -7.02)"/><path class="cls-6" d="M137.61,62.15l-12.77,7.37c-4.62,2.67-6.29,2.41-7.77-1.18-1.37-3.31-5.44-14-6.1-15.82l1.6-.92c.05.11,4.45,11.92,5.81,15.21,1.24,3,2.39,3.15,6.46.8l12.77-7.37Z" transform="translate(-16.23 -7.02)"/><path class="cls-9" d="M150.83,74.48c-.44-3.35-.81-6.24-5.17-3.72L143.53,72l-3.31,1.91-2.14,1.23c-4.35,2.52-4.73,5.84-5.16,9.69-.4,3.5-1.29,13.62-1.3,13.73l.87-.55c0-.1.89-10,1.28-13.49.47-4.14.85-6.22,4.31-8.22l2.14-1.24,3.31-1.9,2.13-1.24c3.47-2,3.85-.35,4.31,3.25.4,3,1.27,11.91,1.28,12l.88-.46C152.12,86.61,151.22,77.52,150.83,74.48Z" transform="translate(-16.23 -7.02)"/><path class="cls-9" d="M151.25,87.16l1.31.77s-.19-6.21-.43-8.54-1.32-7.55-1.32-7.55l-.52.41Z" transform="translate(-16.23 -7.02)"/><path class="cls-9" d="M132.93,99.31l-1.31-.76s1.51-11.51,1.77-13.27,1.19-5.89,1.19-5.89l1.44.36a20,20,0,0,0-1.24,4.43C134.63,86,132.93,99.31,132.93,99.31Z" transform="translate(-16.23 -7.02)"/><path class="cls-10" d="M152.14,75.24c-.44-3.34-.81-6.23-5.17-3.72l-2.13,1.24-3.31,1.9-2.14,1.24c-4.35,2.51-4.73,5.84-5.16,9.69-.4,3.49-1.29,13.62-1.3,13.72l.87-.54c0-.1.89-10,1.28-13.49.47-4.15.85-6.23,4.31-8.23l2.14-1.23,3.31-1.91L147,72.68c3.47-2,3.84-.36,4.31,3.24.4,3,1.27,11.92,1.28,12l.88-.46C153.43,87.37,152.53,78.28,152.14,75.24Z" transform="translate(-16.23 -7.02)"/><path class="cls-11" d="M154.14,69.74l-16.53-9.5L129.29,65s4.52,13.56,6.34,14C140.44,80.38,154.14,69.74,154.14,69.74Z" transform="translate(-16.23 -7.02)"/><path class="cls-22" d="M132.33,39.71c-1.1-.52-2-2.45-4.18-.43-1.79,1.68-2.7,6.11.2,8.64S132.33,39.71,132.33,39.71Z" transform="translate(-16.23 -7.02)"/><path class="cls-14" d="M136.22,27.21c.5.35,2.36.79,2.91,4.93.37,2.79-.56,4-1.35,4.76a4,4,0,0,1-1.62.35l.06,3.1a5.28,5.28,0,0,1-3.57,0l-1.74-.72a6.14,6.14,0,0,0,.57-3.2c-.14-2.53-1-6.12-.41-7.46A3.62,3.62,0,0,1,136.22,27.21Z" transform="translate(-16.23 -7.02)"/><path class="cls-12" d="M141,57.93a73,73,0,0,1-7.24,1.46V69.78l.15,0a35.63,35.63,0,0,0,12.32-4.87C147,60.84,146.64,56.35,141,57.93Z" transform="translate(-16.23 -7.02)"/><path class="cls-2" d="M130.85,71c1.41.78,2.7,2.44,7.68,1.69s11.58-6.72,13.53-8c.56-4.27.12-5.6-5.57-4A103.14,103.14,0,0,1,135,62.73s-6.47-3.3-7.42-.47C125.88,67.41,128.31,69.6,130.85,71Z" transform="translate(-16.23 -7.02)"/><path class="cls-15" d="M142.28,52.4l11,6.35c.24.14.44,0,.44-.34V49.63a1.09,1.09,0,0,0-.44-.85l-11-6.34c-.25-.14-.45,0-.45.33v8.78A1.05,1.05,0,0,0,142.28,52.4Z" transform="translate(-16.23 -7.02)"/><polygon class="cls-15" points="137.32 51.75 136.74 52.09 136.79 51.41 137.32 51.75"/><polygon class="cls-15" points="125.17 35.73 125.76 35.39 125.97 36.56 125.17 35.73"/><path class="cls-9" d="M141.67,52.75l11,6.34c.24.14.44,0,.44-.33V50a1.07,1.07,0,0,0-.44-.85l-11-6.35c-.24-.14-.44,0-.44.34V51.9A1.1,1.1,0,0,0,141.67,52.75Z" transform="translate(-16.23 -7.02)"/><polygon class="cls-12" points="125.39 44.72 136.5 51.14 136.5 42.64 125.39 36.22 125.39 44.72"/><path class="cls-16" d="M146.46,55.19l1.42.82c.07,0,.13,0,.13-.1h0a.31.31,0,0,0-.13-.25l-1.42-.82c-.07,0-.13,0-.13.1h0A.31.31,0,0,0,146.46,55.19Z" transform="translate(-16.23 -7.02)"/><polygon class="cls-4" points="125.97 45.06 135.94 50.81 135.94 43.06 125.97 37.31 125.97 45.06"/><path class="cls-15" d="M132.56,59.18l10.62,6.13a1.25,1.25,0,0,0,1.11,0l8.11-4.68c.33-.19.37-.48.08-.64l-10.61-6.13a1.21,1.21,0,0,0-1.11,0l-8.12,4.69C132.31,58.73,132.28,59,132.56,59.18Z" transform="translate(-16.23 -7.02)"/><rect class="cls-15" x="151.94" y="59.5" width="0.73" height="0.73" transform="translate(288.39 112.71) rotate(180)"/><rect class="cls-15" x="132.37" y="58.21" width="0.73" height="0.73" transform="translate(249.24 110.12) rotate(180)"/><path class="cls-9" d="M132.56,58.51l10.62,6.13a1.25,1.25,0,0,0,1.11,0l8.11-4.68c.33-.19.37-.48.08-.65l-10.61-6.12a1.21,1.21,0,0,0-1.11,0l-8.12,4.69C132.31,58.06,132.28,58.35,132.56,58.51Z" transform="translate(-16.23 -7.02)"/><polygon class="cls-10" points="119.67 49.59 130.19 55.66 135.53 52.58 125.01 46.51 119.67 49.59"/><polygon class="cls-10" points="120.27 53.19 123.99 55.34 125.98 54.19 122.26 52.04 120.27 53.19"/><polygon class="cls-15" points="135.07 52.57 134.34 52.15 133.81 52.45 134.55 52.88 135.07 52.57"/><polygon class="cls-15" points="134.31 53.01 133.57 52.59 133.04 52.89 133.78 53.32 134.31 53.01"/><polygon class="cls-15" points="133.54 53.46 132.55 52.88 132.02 53.19 133.01 53.76 133.54 53.46"/><polygon class="cls-15" points="124.04 47.98 123.56 47.7 122.27 48.45 122.75 48.72 124.04 47.98"/><polygon class="cls-15" points="132.77 53.9 131.78 53.33 131.25 53.63 132.24 54.2 132.77 53.9"/><polygon class="cls-15" points="132 54.34 130.69 53.59 130.16 53.89 131.47 54.65 132 54.34"/><polygon class="cls-15" points="123.97 49.7 122.01 48.58 121.49 48.88 123.44 50.01 123.97 49.7"/><polygon class="cls-15" points="131.24 54.79 130.5 54.36 129.97 54.67 130.71 55.09 131.24 54.79"/><polygon class="cls-15" points="134.16 52.04 133.42 51.62 132.89 51.92 133.63 52.34 134.16 52.04"/><polygon class="cls-15" points="133.39 52.48 132.65 52.06 132.13 52.36 132.86 52.79 133.39 52.48"/><polygon class="cls-15" points="133.23 51.5 132.49 51.08 131.97 51.38 132.7 51.81 133.23 51.5"/><polygon class="cls-15" points="132.46 51.95 131.73 51.52 131.2 51.83 131.93 52.25 132.46 51.95"/><polygon class="cls-15" points="132.31 50.97 131.57 50.55 131.05 50.85 131.78 51.28 132.31 50.97"/><polygon class="cls-15" points="131.54 51.42 130.81 50.99 130.28 51.3 131.01 51.72 131.54 51.42"/><polygon class="cls-15" points="131.38 50.44 130.65 50.02 130.12 50.32 130.86 50.74 131.38 50.44"/><polygon class="cls-15" points="130.62 50.88 129.88 50.46 129.35 50.76 130.09 51.19 130.62 50.88"/><polygon class="cls-15" points="130.47 49.91 129.73 49.49 129.2 49.79 129.94 50.22 130.47 49.91"/><polygon class="cls-15" points="129.7 50.35 128.96 49.93 128.44 50.23 129.17 50.66 129.7 50.35"/><polygon class="cls-15" points="129.54 49.37 128.8 48.95 128.28 49.26 129.01 49.68 129.54 49.37"/><polygon class="cls-15" points="128.77 49.82 128.04 49.39 127.51 49.7 128.24 50.12 128.77 49.82"/><polygon class="cls-15" points="132.34 52.76 131.6 52.34 131.08 52.65 131.81 53.07 132.34 52.76"/><polygon class="cls-15" points="131.57 53.21 130.84 52.78 130.31 53.09 131.04 53.51 131.57 53.21"/><polygon class="cls-15" points="131.41 52.23 130.68 51.8 130.15 52.11 130.88 52.53 131.41 52.23"/><polygon class="cls-15" points="130.64 52.67 129.91 52.25 129.38 52.55 130.12 52.98 130.64 52.67"/><polygon class="cls-15" points="130.49 51.7 129.76 51.27 129.23 51.58 129.97 52 130.49 51.7"/><polygon class="cls-15" points="129.73 52.14 128.99 51.72 128.46 52.02 129.2 52.45 129.73 52.14"/><polygon class="cls-15" points="129.57 51.16 128.83 50.74 128.31 51.05 129.04 51.47 129.57 51.16"/><polygon class="cls-15" points="128.8 51.61 128.07 51.18 127.54 51.49 128.27 51.91 128.8 51.61"/><polygon class="cls-15" points="128.65 50.63 127.92 50.21 127.39 50.52 128.12 50.94 128.65 50.63"/><polygon class="cls-15" points="127.88 51.08 127.15 50.65 126.62 50.96 127.35 51.38 127.88 51.08"/><polygon class="cls-15" points="127.72 50.1 126.99 49.67 126.46 49.98 127.19 50.4 127.72 50.1"/><polygon class="cls-15" points="126.95 50.54 126.22 50.12 125.69 50.42 126.43 50.85 126.95 50.54"/><polygon class="cls-15" points="126.8 49.57 126.07 49.14 125.54 49.45 126.27 49.87 126.8 49.57"/><polygon class="cls-15" points="126.03 50.01 125.3 49.59 124.77 49.89 125.5 50.31 126.03 50.01"/><polygon class="cls-15" points="130.44 53.44 129.71 53.02 129.18 53.32 129.91 53.74 130.44 53.44"/><polygon class="cls-15" points="129.51 52.9 128.78 52.48 128.25 52.78 128.98 53.21 129.51 52.9"/><polygon class="cls-15" points="128.59 52.37 127.86 51.95 127.33 52.26 128.06 52.68 128.59 52.37"/><polygon class="cls-15" points="127.67 51.84 126.93 51.42 126.41 51.72 127.14 52.15 127.67 51.84"/><polygon class="cls-15" points="126.75 51.31 126.02 50.89 125.49 51.19 126.22 51.62 126.75 51.31"/><polygon class="cls-15" points="125.82 50.77 125.09 50.35 124.56 50.66 125.29 51.08 125.82 50.77"/><polygon class="cls-15" points="124.9 50.24 124.17 49.82 123.64 50.12 124.37 50.55 124.9 50.24"/><polygon class="cls-15" points="125.87 49.03 125.14 48.61 124.61 48.91 125.34 49.34 125.87 49.03"/><polygon class="cls-15" points="125.11 49.47 124.37 49.05 123.84 49.35 124.58 49.78 125.11 49.47"/><polygon class="cls-15" points="124.95 48.5 124.22 48.08 123.69 48.38 124.43 48.81 124.95 48.5"/><polygon class="cls-15" points="124.19 48.94 123.45 48.52 122.92 48.83 123.66 49.25 124.19 48.94"/><polygon class="cls-15" points="128.62 48.84 127.89 48.42 127.36 48.73 128.09 49.15 128.62 48.84"/><polygon class="cls-15" points="127.85 49.29 127.12 48.86 126.59 49.17 127.32 49.59 127.85 49.29"/><polygon class="cls-15" points="127.68 48.3 126.95 47.88 126.42 48.18 127.15 48.61 127.68 48.3"/><polygon class="cls-15" points="126.91 48.74 126.18 48.32 125.65 48.63 126.39 49.05 126.91 48.74"/><polygon class="cls-15" points="126.76 47.77 126.03 47.35 125.5 47.65 126.23 48.08 126.76 47.77"/><polygon class="cls-15" points="126 48.22 125.26 47.79 124.73 48.1 125.47 48.52 126 48.22"/><polygon class="cls-15" points="125.83 47.24 125.1 46.81 124.57 47.12 125.31 47.54 125.83 47.24"/><polygon class="cls-15" points="125.07 47.68 124.33 47.26 123.81 47.56 124.54 47.98 125.07 47.68"/><polygon class="cls-15" points="130.32 54.26 129.58 53.83 129.06 54.14 129.79 54.56 130.32 54.26"/><polygon class="cls-15" points="129.39 53.72 128.66 53.3 128.13 53.6 128.86 54.02 129.39 53.72"/><polygon class="cls-15" points="124.58 50.94 123.84 50.52 123.31 50.82 124.05 51.25 124.58 50.94"/><polygon class="cls-15" points="123.66 50.41 122.92 49.99 122.4 50.29 123.13 50.72 123.66 50.41"/><polygon class="cls-15" points="122.73 49.88 122 49.45 121.47 49.76 122.2 50.18 122.73 49.88"/><polygon class="cls-15" points="121.82 49.35 121.26 49.03 120.73 49.33 121.29 49.66 121.82 49.35"/><polygon class="cls-15" points="128.46 53.19 124.75 51.04 124.23 51.35 127.93 53.49 128.46 53.19"/><polygon class="cls-12" points="134.69 54.26 135.73 53.65 135.73 53.32 134.69 53.92 134.69 54.26"/><polygon class="cls-12" points="133.48 54.96 134.53 54.35 134.53 54.02 133.48 54.62 133.48 54.96"/><path class="cls-14" d="M138.11,57l2.81.55c1.64.34,2,.46,2,.46s.25-.25-.14-.76a2.87,2.87,0,0,0-1.37-.73l1.73-1.23s-.46-2.53-2.6-2.93a6,6,0,0,0-3.52.29Z" transform="translate(-16.23 -7.02)"/><path class="cls-5" d="M127.09,62.41c.88,2.43,5.69,4.88,7.94,4.84A8.6,8.6,0,0,0,139.72,66c1.32-.94,1.85-1.48,1.24-4-.19-.79-2.14-8,0-12.5,1-2.2-1.31-6.19-2-7.62a5.93,5.93,0,0,0-2.75-2.31l-5.37-.63s-3.22,1-3.22,5.86a69.1,69.1,0,0,0,.94,8.83c.13,1,.49,3.42-1.22,7.83A5.48,5.48,0,0,0,127.09,62.41Z" transform="translate(-16.23 -7.02)"/><path class="cls-22" d="M130.42,39.3s.27.87,2,1.44a6.47,6.47,0,0,0,5.12-.41c0-1.15-1.39-1.66-1.39-1.66a5.21,5.21,0,0,1-3.39,0L131,38Z" transform="translate(-16.23 -7.02)"/><path class="cls-2" d="M133,25.89c-2.37.5-4.85,2-4,7a7.9,7.9,0,0,0,2,3.37A3.47,3.47,0,0,1,132.19,38c1.9-.22,3.69-3.22,4.73-4.31s2.21-1.51,2.34-2.93C139.54,27.8,137.48,25,133,25.89Z" transform="translate(-16.23 -7.02)"/><path class="cls-14" d="M138,32.76s-1.09-1.87-1.56,0a1.89,1.89,0,0,0,1.08,2.31Z" transform="translate(-16.23 -7.02)"/><path class="cls-6" d="M118.89,71l16.74,9.65S132,71.32,130.8,68.4,128,61.1,128,61.1l-16.12-8.65Z" transform="translate(-16.23 -7.02)"/><path class="cls-18" d="M154.14,71.65,141.37,79c-4.62,2.67-6.29,2.41-7.77-1.18-1.36-3.31-5.44-14-6.1-15.82l1.6-.92c.05.11,4.45,11.92,5.81,15.21,1.24,3,2.39,3.15,6.46.8l12.77-7.37Z" transform="translate(-16.23 -7.02)"/><polygon class="cls-11" points="96.34 44.57 94.74 45.5 111.28 55 112.88 54.07 96.34 44.57"/><path class="cls-22" d="M137.58,41.38s-1.22.69-1.33,3.59.74,4.65,2.37,7.48c.72,1.24,3.25,4.41,4.83,4.61s6.18-.85,8-2.69c1.24-1.27.33-2.77,0-3.43-.9-.35-4.53.07-6.26.66-1.26-2.14-1.8-2.35-3.08-5.62S139.51,40.65,137.58,41.38Z" transform="translate(-16.23 -7.02)"/><path class="cls-12" d="M131.65,23.74c-1.66-.4-3,.44-4,2a8.09,8.09,0,0,0-.6,6.06c.52,1.84,1.05,3.71,0,4.19a1.27,1.27,0,0,1-2-1s-.8,3,2.58,3,5.26-2.4,6-7.23C134.14,27.31,133.76,24.26,131.65,23.74Z" transform="translate(-16.23 -7.02)"/><path class="cls-14" d="M151.43,50.94a4.44,4.44,0,0,0,.51-1.93c-.11-.68.26-.47.44-.19a3.67,3.67,0,0,1,.42,1,6.42,6.42,0,0,1,.91-.2A1.66,1.66,0,0,1,155,51.94c-.54,1.8-3,1.76-3,1.76Z" transform="translate(-16.23 -7.02)"/><path class="cls-5" d="M150.53,50.82a3.42,3.42,0,0,1,.91,1.84,3.48,3.48,0,0,1,0,1.71s1.16-.21,1.33-1.2S152.45,49.82,150.53,50.82Z" transform="translate(-16.23 -7.02)"/><path class="cls-9" d="M165.29,83.07c-.43-3.35-.81-6.24-5.16-3.72L158,80.58l-3.3,1.91-2.14,1.23c-4.36,2.52-4.73,5.84-5.17,9.69-.39,3.49-1.29,13.62-1.3,13.73l.88-.55c0-.1.88-10,1.28-13.49.47-4.14.85-6.22,4.31-8.22l2.14-1.24,3.3-1.9,2.14-1.24c3.46-2,3.84-.35,4.31,3.25.39,3,1.26,11.91,1.27,12l.88-.46C166.59,95.2,165.69,86.11,165.29,83.07Z" transform="translate(-16.23 -7.02)"/><path class="cls-9" d="M165.71,95.75l1.31.77s-.19-6.21-.43-8.54-1.32-7.55-1.32-7.55l-.52.41Z" transform="translate(-16.23 -7.02)"/><path class="cls-9" d="M147.39,107.9l-1.31-.76s1.51-11.51,1.77-13.27S149,88,149,88l1.45.36a19.24,19.24,0,0,0-1.24,4.42C149.09,94.55,147.39,107.9,147.39,107.9Z" transform="translate(-16.23 -7.02)"/><path class="cls-10" d="M166.6,83.83c-.43-3.34-.81-6.23-5.16-3.72l-2.14,1.24-3.3,1.9-2.14,1.24c-4.36,2.51-4.73,5.83-5.17,9.68-.39,3.5-1.29,13.63-1.3,13.73l.88-.54c0-.11.88-10,1.28-13.5.47-4.14.85-6.22,4.31-8.22L156,84.41l3.3-1.91,2.14-1.23c3.46-2,3.84-.36,4.31,3.24.39,3,1.26,11.92,1.27,12l.88-.46C167.9,96,167,86.87,166.6,83.83Z" transform="translate(-16.23 -7.02)"/><path class="cls-6" d="M165.07,78.18,152.3,85.55c-4.62,2.67-6.29,2.42-7.77-1.17-1.37-3.32-5.44-14-6.1-15.83l1.6-.92c0,.12,4.45,11.92,5.81,15.21,1.24,3,2.39,3.15,6.46.8l12.77-7.37Z" transform="translate(-16.23 -7.02)"/><path class="cls-14" d="M173.65,95.46c1.41-.7,2.75-1.57,2.32-2.37a1.41,1.41,0,0,0-1.07-.59c-1.3.42-2,.71-2,.71a101.33,101.33,0,0,1,.69-10.66c.18-1-4.74-1.07-4.74-1.07a74.42,74.42,0,0,0,0,10.92,11,11,0,0,1-.06,2.76l1.55.68A3.91,3.91,0,0,0,173.65,95.46Z" transform="translate(-16.23 -7.02)"/><path class="cls-12" d="M168.79,97.22c.47,1.12,1.55,1,3.75.22a18.91,18.91,0,0,0,4.94-2.52c1.38-1,1.39-1.16,1.58-1.85.25-1-1.16-1.51-3.52-.78l-.64.21a1.41,1.41,0,0,1,1.07.59c.43.8-.91,1.67-2.32,2.37a3.91,3.91,0,0,1-3.26.38l-1.55-.68C168.7,96.1,168.5,96.54,168.79,97.22Z" transform="translate(-16.23 -7.02)"/><path class="cls-14" d="M179.38,98.77c1.41-.71,2.74-1.57,2.32-2.37a1.43,1.43,0,0,0-1.08-.6c-1.3.43-2,.72-2,.72s.7-12.19,1.26-15.31c.18-1-5.1.87-5.1.87a109.6,109.6,0,0,0-.21,13.62,11.71,11.71,0,0,1-.05,2.77l1.54.68A3.93,3.93,0,0,0,179.38,98.77Z" transform="translate(-16.23 -7.02)"/><path class="cls-12" d="M174.51,100.52c.47,1.12,1.56,1,3.75.23a18.9,18.9,0,0,0,4.94-2.52c1.39-1,1.4-1.16,1.58-1.85.26-1-1.16-1.52-3.51-.79l-.65.21a1.43,1.43,0,0,1,1.08.6c.42.8-.91,1.66-2.32,2.37a3.93,3.93,0,0,1-3.27.38l-1.54-.68C174.43,99.41,174.23,99.85,174.51,100.52Z" transform="translate(-16.23 -7.02)"/><path class="cls-9" d="M178.29,90.51c-.44-3.34-.81-6.23-5.17-3.72L171,88l-3.3,1.91-2.14,1.24c-4.35,2.51-4.73,5.83-5.16,9.68-.4,3.5-1.3,13.63-1.31,13.73L160,114c0-.1.89-10,1.28-13.49.47-4.14.85-6.22,4.31-8.22l2.14-1.23,3.3-1.91,2.14-1.24c3.46-2,3.84-.35,4.31,3.25.39,3,1.27,11.91,1.28,12l.88-.47C179.58,102.64,178.68,93.55,178.29,90.51Z" transform="translate(-16.23 -7.02)"/><path class="cls-9" d="M178.71,103.2,180,104s-.19-6.21-.43-8.54-1.32-7.55-1.32-7.55l-.52.41Z" transform="translate(-16.23 -7.02)"/><path class="cls-9" d="M160.38,115.34l-1.31-.76s1.52-11.51,1.77-13.26,1.19-5.9,1.19-5.9l1.45.36a20,20,0,0,0-1.24,4.43C162.09,102,160.38,115.34,160.38,115.34Z" transform="translate(-16.23 -7.02)"/><path class="cls-10" d="M179.6,91.28c-.44-3.35-.81-6.24-5.17-3.73l-2.14,1.24L169,90.7l-2.14,1.23c-4.35,2.51-4.73,5.84-5.16,9.69-.4,3.49-1.3,13.62-1.31,13.72l.88-.54c0-.1.89-10,1.28-13.49.47-4.15.85-6.23,4.31-8.22L169,91.85l3.3-1.91,2.14-1.23c3.46-2,3.84-.36,4.31,3.24.39,3,1.27,11.92,1.28,12l.88-.46C180.89,103.41,180,94.32,179.6,91.28Z" transform="translate(-16.23 -7.02)"/><path class="cls-11" d="M181.6,85.77l-16.53-9.5-8.32,4.8s4.52,13.56,6.34,14.05C167.9,96.41,181.6,85.77,181.6,85.77Z" transform="translate(-16.23 -7.02)"/><path class="cls-14" d="M162.69,41.68c.53.37,2.5.83,3.07,5.2.39,2.94-.58,4.25-1.42,5a4.24,4.24,0,0,1-1.71.38l.06,3.27a5.55,5.55,0,0,1-3.76,0l-1.84-.76a6.46,6.46,0,0,0,.6-3.38c-.15-2.66-1.09-6.45-.42-7.86A3.8,3.8,0,0,1,162.69,41.68Z" transform="translate(-16.23 -7.02)"/><path class="cls-8" d="M152.66,82.81c.56,4.07,4.07,5.94,8,5.72,3.72-.2,6.44-2.11,9.07-4.36-.49-3.41-1.62-5.56-2.85-8.73a15,15,0,0,1,.79-10.27c1.09-2.32-1.38-6.53-2.07-8a6.23,6.23,0,0,0-2.9-2.44s-.54,1.19-2.67.8a17.22,17.22,0,0,1-3-1.28,30.06,30.06,0,0,0-2.31,7.12,25.48,25.48,0,0,0-.09,8.19c.13,1.08.52,3.61-1.29,8.25A20.77,20.77,0,0,0,152.66,82.81Z" transform="translate(-16.23 -7.02)"/><path class="cls-12" d="M165.9,45.38c-.14,1.5-1.37,1.95-2.47,3.09a20.73,20.73,0,0,1-4.07,4c-.88.62-.66,5.46-2.33,8.9-1.78,3.67-.74,4.34-.74,4.34s-5.08-1.64-3-7.3c.76-2.07,3.65-3.76,3.75-5.94.05-1-1.29-2-1.72-3.92-1.36-6,1.41-7.67,4-8.22C164,39.3,166.19,42.3,165.9,45.38Z" transform="translate(-16.23 -7.02)"/><path class="cls-14" d="M164.62,47.53s-1.15-2-1.65,0A2,2,0,0,0,164.11,50Z" transform="translate(-16.23 -7.02)"/><path class="cls-8" d="M156.58,51.27s-.06,1.25.2,1.53a3,3,0,0,0,2.16.62A2.52,2.52,0,0,0,160,52,16.47,16.47,0,0,1,156.58,51.27Z" transform="translate(-16.23 -7.02)"/><path class="cls-8" d="M155.18,87.12s2,3.38,11,1.37C174.37,86.65,179.9,85,180,82.56c.2-4.17-1.14-6.39-5.65-7.86-3.32-1.08-9.75-.63-9.75-.63Z" transform="translate(-16.23 -7.02)"/><path class="cls-13" d="M166.53,74.07a4.52,4.52,0,0,1,.06,4.32c-1.16,2.46-2.51,3.2-3.7,4.71s3,1.94,4.13-.54,1.14-4.77,2.15-5.07,2.6,3.19,3.9,2.94-1.88-6.29-1.88-6.29Z" transform="translate(-16.23 -7.02)"/><path class="cls-12" d="M172.05,76.35l-4.45-2.57c-1-.63-.64-1.26-.18-2.15l4.08-7.78c.47-.89.83-1.72,2.07-1l4.6,2.61c1,.6.27,1.5-.2,2.39l-4.24,8.08C173.23,76.88,172.76,76.83,172.05,76.35Z" transform="translate(-16.23 -7.02)"/><path class="cls-23" d="M171.69,76.13l-4.45-2.56c-1-.64-.64-1.26-.17-2.15l4.08-7.78c.46-.89.82-1.73,2.07-1l4.6,2.61c1,.61.26,1.51-.2,2.4l-4.24,8.08C172.87,76.67,172.4,76.61,171.69,76.13Z" transform="translate(-16.23 -7.02)"/><polygon class="cls-4" points="156.69 68.1 151.2 64.98 156.06 55.89 161.55 59.02 156.69 68.1"/><polygon class="cls-4" points="154.03 67.65 152.75 66.91 153.01 66.45 154.29 67.18 154.03 67.65"/><path class="cls-6" d="M146.35,87l16.74,9.65s-3.63-9.27-4.83-12.2-2.86-7.3-2.86-7.3l-16.11-8.65Z" transform="translate(-16.23 -7.02)"/><path class="cls-18" d="M181.6,87.68l-12.77,7.37c-4.62,2.67-6.29,2.41-7.77-1.17-1.37-3.32-5.44-14-6.1-15.83l1.6-.92c.05.12,4.45,11.92,5.81,15.21,1.24,3,2.39,3.15,6.46.8l12.77-7.37Z" transform="translate(-16.23 -7.02)"/><polygon class="cls-11" points="123.8 60.61 122.2 61.53 138.73 71.03 140.33 70.1 123.8 60.61"/><path class="cls-14" d="M177.42,70.09c-.43-.86-1.4.84-1.95.79s-2.3-2.25-4.83-3.73c-1.21-3.09-4.1-10.49-5.69-10.64-1.08-.11-2.21,1.86-2.1,4.33s2.9,7.13,4.76,9.25c1.3,1.49,7,3.7,8.73,3.1A2.07,2.07,0,0,0,177.42,70.09Z" transform="translate(-16.23 -7.02)"/><path class="cls-14" d="M175.22,71s0-.92-.05-1.4.35-.62.58-.22a13.11,13.11,0,0,1,.59,1.47A3.14,3.14,0,0,1,175.22,71Z" transform="translate(-16.23 -7.02)"/><path class="cls-9" d="M195.07,100.14c-.44-3.34-.81-6.22-5.15-3.71l-2.14,1.23-3.29,1.9-2.13,1.23c-4.34,2.51-4.72,5.82-5.15,9.66-.4,3.48-1.29,13.58-1.3,13.68l.87-.54c0-.1.89-10,1.28-13.45.47-4.13.85-6.2,4.3-8.2l2.13-1.23,3.29-1.9,2.14-1.23c3.45-2,3.82-.36,4.29,3.23.39,3,1.27,11.88,1.27,12l.88-.47C196.35,112.23,195.46,103.17,195.07,100.14Z" transform="translate(-16.23 -7.02)"/><path class="cls-9" d="M195.48,112.79l1.31.76s-.19-6.2-.43-8.52-1.31-7.52-1.31-7.52l-.52.41Z" transform="translate(-16.23 -7.02)"/><path class="cls-9" d="M177.21,124.9l-1.3-.77s1.51-11.47,1.76-13.22,1.19-5.88,1.19-5.88l1.44.36a19.8,19.8,0,0,0-1.24,4.42C178.91,111.58,177.21,124.9,177.21,124.9Z" transform="translate(-16.23 -7.02)"/><path class="cls-10" d="M196.37,100.9c-.43-3.34-.81-6.22-5.15-3.71l-2.13,1.23-3.3,1.9-2.13,1.23c-4.34,2.51-4.71,5.82-5.15,9.66-.39,3.49-1.29,13.58-1.3,13.69l.88-.55c0-.1.88-10,1.28-13.45.46-4.13.84-6.2,4.29-8.2l2.13-1.23,3.3-1.9,2.13-1.23c3.45-2,3.83-.35,4.3,3.24.39,3,1.26,11.88,1.27,12l.88-.46C197.66,113,196.77,103.93,196.37,100.9Z" transform="translate(-16.23 -7.02)"/><path class="cls-6" d="M194.84,95.26l-12.73,7.36c-4.61,2.65-6.27,2.4-7.75-1.18-1.36-3.3-5.43-14-6.08-15.77l1.6-.93c0,.12,4.43,11.89,5.79,15.17,1.24,3,2.38,3.14,6.44.8l12.73-7.35Z" transform="translate(-16.23 -7.02)"/><path class="cls-9" d="M199.68,105.69,197.45,107l-2.14,1.23c-4.34,2.51-4.71,5.82-5.15,9.66-.39,3.49-1.29,13.58-1.29,13.69l.87-.55c0-.1.89-10,1.28-13.45.46-4.13.84-6.2,4.29-8.2l2.14-1.23,2.61-1.51Z" transform="translate(-16.23 -7.02)"/><path class="cls-9" d="M190.17,132.32l-1.3-.76s1.5-11.47,1.76-13.23,1.19-5.87,1.19-5.87l1.44.36a19.65,19.65,0,0,0-1.24,4.41C191.87,119,190.17,132.32,190.17,132.32Z" transform="translate(-16.23 -7.02)"/><path class="cls-10" d="M199.76,107.16l-1,.58L196.62,109c-4.34,2.51-4.72,5.82-5.15,9.66-.39,3.49-1.29,13.59-1.3,13.69l.88-.54c0-.11.88-10,1.27-13.46.47-4.13.85-6.2,4.3-8.19l2.13-1.24,1.31-.75C200,107.81,199.85,107.49,199.76,107.16Z" transform="translate(-16.23 -7.02)"/><path class="cls-11" d="M211.33,102.83l-16.49-9.47-8.3,4.79s4.52,13.51,6.33,14C197.66,113.44,211.33,102.83,211.33,102.83Z" transform="translate(-16.23 -7.02)"/><path class="cls-12" d="M215.71,109.84c-.72-.45-4.38,1.68-4.38,1.68l-5.06,1.7-.38,3.64a3,3,0,0,0,4.19.57c1.49-1,5-2.72,5.79-4.42S216.44,110.29,215.71,109.84Z" transform="translate(-16.23 -7.02)"/><path class="cls-12" d="M210.47,106.91c-.73-.45-4.39,1.69-4.39,1.69L201,110.29l-.37,3.65a3,3,0,0,0,4.18.57c1.49-1,5-2.72,5.79-4.43S211.19,107.37,210.47,106.91Z" transform="translate(-16.23 -7.02)"/><path class="cls-13" d="M207.21,95.92c-.56-3.35-.63-5-2.65-5.79-1.19-.48-5.64.68-8.5,1.3a11.7,11.7,0,0,0,1.37,7.66l2.82-1.54C200.59,98.39,207.23,96.06,207.21,95.92Z" transform="translate(-16.23 -7.02)"/><path class="cls-13" d="M206.61,106.58c-1,.62-1.92,1.21-2.86,1.86a29.63,29.63,0,0,1-3.54,2.19c.54.38,2.35,1.85,4.53.93,4.13-1.75,3.45-4.4,3.45-4.4S206.75,107.39,206.61,106.58Z" transform="translate(-16.23 -7.02)"/><path class="cls-24" d="M184.78,71.73c-1.69,1.46-3.64,8.78-3.88,10.83-.14,1.17-.51,5,2.08,6.09,2.16.87,2.45-1.62,3.16-2.81.88-1.51,1.27-8,1.27-8l1.36-6.66A4.24,4.24,0,0,0,184.78,71.73Z" transform="translate(-16.23 -7.02)"/><path class="cls-14" d="M192.49,58.94a3.79,3.79,0,0,0-5.4,1.84c-.66,1.41.28,5.18.43,7.82a6.4,6.4,0,0,1-.6,3.37l1.83.75a5.49,5.49,0,0,0,3.74,0l-.06-3.25a8.59,8.59,0,0,0,2.32-.61c.83-.76,1.27-3,.88-6C195.06,58.57,193,59.31,192.49,58.94Z" transform="translate(-16.23 -7.02)"/><path class="cls-8" d="M211.33,102.83c.11.64-4.12,2.27-4.44,3.56-.38,1.51-1,7.43-1,7.83,1,.71,3.52.56,4.13.36a4.86,4.86,0,0,0,3.16-2.72c-.45-3.8.31-11.07.11-12.55-.46-3.39-1.13-6.08-3.15-6.89-1.44-.58-4.64-.13-8.54.94a36.28,36.28,0,0,0-8.28,3.79l-8.91.46s-.46,3.62,2.09,5.47,8,4.7,12.43,2.39c2.11-1.1,6.57-3.71,8.6-4.82C208.09,101,210.63,102.43,211.33,102.83Z" transform="translate(-16.23 -7.02)"/><path class="cls-12" d="M201.79,85.49l11,6.34c.25.14.45,0,.45-.33V82.72a1.05,1.05,0,0,0-.45-.85l-11-6.35c-.25-.14-.45,0-.45.34v8.78A1.08,1.08,0,0,0,201.79,85.49Z" transform="translate(-16.23 -7.02)"/><polygon class="cls-12" points="196.83 84.84 196.25 85.17 196.3 84.5 196.83 84.84"/><polygon class="cls-12" points="184.68 68.81 185.27 68.47 185.48 69.64 184.68 68.81"/><path class="cls-23" d="M201.19,85.83l11,6.34c.24.15.44,0,.44-.33V83.06a1.07,1.07,0,0,0-.44-.85l-11-6.35c-.25-.14-.45,0-.45.34V85A1.07,1.07,0,0,0,201.19,85.83Z" transform="translate(-16.23 -7.02)"/><polygon class="cls-12" points="184.9 77.8 196.01 84.22 196.01 75.72 184.9 69.3 184.9 77.8"/><path class="cls-16" d="M206,88.28l1.42.81c.07,0,.13,0,.13-.1h0a.31.31,0,0,0-.13-.25L206,87.92c-.07,0-.13,0-.13.1h0A.35.35,0,0,0,206,88.28Z" transform="translate(-16.23 -7.02)"/><polygon class="cls-5" points="185.48 78.14 195.45 83.89 195.45 76.15 185.48 70.39 185.48 78.14"/><path class="cls-12" d="M192.07,92.26l10.62,6.13a1.28,1.28,0,0,0,1.11,0l8.12-4.69c.32-.19.36-.48.08-.64l-10.62-6.13a1.25,1.25,0,0,0-1.11,0l-8.12,4.69C191.82,91.81,191.79,92.1,192.07,92.26Z" transform="translate(-16.23 -7.02)"/><rect class="cls-12" x="211.46" y="92.59" width="0.73" height="0.73" transform="translate(407.41 178.88) rotate(180)"/><rect class="cls-15" x="191.88" y="91.29" width="0.73" height="0.73" transform="translate(368.26 176.28) rotate(180)"/><path class="cls-23" d="M192.07,91.59l10.62,6.13a1.25,1.25,0,0,0,1.11,0L211.92,93c.32-.19.36-.48.08-.64l-10.62-6.13a1.21,1.21,0,0,0-1.11,0L192.15,91C191.82,91.14,191.79,91.43,192.07,91.59Z" transform="translate(-16.23 -7.02)"/><polygon class="cls-12" points="179.19 82.67 189.71 88.75 195.05 85.66 184.53 79.59 179.19 82.67"/><polygon class="cls-12" points="179.78 86.28 183.5 88.43 185.49 87.28 181.77 85.13 179.78 86.28"/><polygon class="cls-4" points="194.59 85.65 193.85 85.23 193.32 85.53 194.06 85.96 194.59 85.65"/><polygon class="cls-4" points="193.82 86.09 193.08 85.67 192.56 85.98 193.29 86.4 193.82 86.09"/><polygon class="cls-4" points="193.05 86.54 192.06 85.97 191.53 86.27 192.52 86.84 193.05 86.54"/><polygon class="cls-4" points="183.56 81.06 183.08 80.78 181.78 81.53 182.26 81.81 183.56 81.06"/><polygon class="cls-4" points="192.28 86.98 191.29 86.41 190.76 86.71 191.75 87.29 192.28 86.98"/><polygon class="cls-4" points="191.51 87.42 190.21 86.67 189.68 86.97 190.99 87.73 191.51 87.42"/><polygon class="cls-4" points="183.48 82.79 181.53 81.66 181 81.96 182.96 83.09 183.48 82.79"/><polygon class="cls-4" points="190.75 87.87 190.01 87.44 189.49 87.75 190.22 88.17 190.75 87.87"/><polygon class="cls-4" points="193.67 85.12 192.93 84.7 192.41 85 193.14 85.43 193.67 85.12"/><polygon class="cls-4" points="192.9 85.56 192.17 85.14 191.64 85.45 192.37 85.87 192.9 85.56"/><polygon class="cls-4" points="192.74 84.59 192 84.16 191.48 84.47 192.21 84.89 192.74 84.59"/><polygon class="cls-4" points="191.97 85.03 191.24 84.61 190.71 84.91 191.44 85.33 191.97 85.03"/><polygon class="cls-4" points="191.82 84.06 191.09 83.63 190.56 83.94 191.29 84.36 191.82 84.06"/><polygon class="cls-4" points="191.05 84.5 190.32 84.08 189.79 84.38 190.53 84.8 191.05 84.5"/><polygon class="cls-4" points="190.9 83.52 190.16 83.1 189.63 83.4 190.37 83.83 190.9 83.52"/><polygon class="cls-4" points="190.13 83.97 189.39 83.54 188.87 83.85 189.6 84.27 190.13 83.97"/><polygon class="cls-4" points="189.98 82.99 189.24 82.57 188.72 82.87 189.45 83.3 189.98 82.99"/><polygon class="cls-4" points="189.21 83.44 188.48 83.01 187.95 83.32 188.68 83.74 189.21 83.44"/><polygon class="cls-4" points="189.05 82.46 188.32 82.03 187.79 82.34 188.52 82.76 189.05 82.46"/><polygon class="cls-4" points="188.28 82.9 187.55 82.47 187.02 82.78 187.75 83.2 188.28 82.9"/><polygon class="cls-4" points="191.85 85.85 191.12 85.42 190.59 85.73 191.32 86.15 191.85 85.85"/><polygon class="cls-4" points="191.08 86.29 190.35 85.86 189.82 86.17 190.56 86.59 191.08 86.29"/><polygon class="cls-4" points="190.92 85.31 190.19 84.89 189.66 85.19 190.4 85.62 190.92 85.31"/><polygon class="cls-4" points="190.16 85.75 189.42 85.33 188.89 85.64 189.63 86.06 190.16 85.75"/><polygon class="cls-4" points="190.01 84.78 189.27 84.36 188.74 84.66 189.48 85.08 190.01 84.78"/><polygon class="cls-4" points="189.24 85.22 188.5 84.8 187.98 85.11 188.71 85.53 189.24 85.22"/><polygon class="cls-4" points="189.08 84.25 188.35 83.82 187.82 84.13 188.55 84.55 189.08 84.25"/><polygon class="cls-4" points="188.31 84.69 187.58 84.27 187.05 84.57 187.78 84.99 188.31 84.69"/><polygon class="cls-4" points="188.16 83.72 187.43 83.29 186.9 83.6 187.63 84.02 188.16 83.72"/><polygon class="cls-4" points="187.4 84.16 186.66 83.73 186.13 84.04 186.87 84.46 187.4 84.16"/><polygon class="cls-4" points="187.24 83.18 186.5 82.76 185.97 83.06 186.71 83.48 187.24 83.18"/><polygon class="cls-4" points="186.47 83.62 185.73 83.2 185.21 83.5 185.94 83.93 186.47 83.62"/><polygon class="cls-4" points="186.31 82.65 185.58 82.22 185.05 82.53 185.78 82.95 186.31 82.65"/><polygon class="cls-4" points="185.55 83.09 184.81 82.67 184.28 82.97 185.02 83.4 185.55 83.09"/><polygon class="cls-4" points="189.95 86.52 189.22 86.1 188.69 86.4 189.42 86.83 189.95 86.52"/><polygon class="cls-4" points="189.02 85.99 188.29 85.56 187.76 85.87 188.5 86.29 189.02 85.99"/><polygon class="cls-4" points="188.1 85.46 187.37 85.03 186.84 85.34 187.58 85.76 188.1 85.46"/><polygon class="cls-4" points="187.18 84.92 186.45 84.5 185.92 84.8 186.65 85.23 187.18 84.92"/><polygon class="cls-4" points="186.26 84.39 185.53 83.97 185 84.27 185.73 84.7 186.26 84.39"/><polygon class="cls-4" points="185.33 83.86 184.6 83.43 184.07 83.74 184.81 84.16 185.33 83.86"/><polygon class="cls-4" points="184.41 83.32 183.68 82.9 183.15 83.2 183.88 83.63 184.41 83.32"/><polygon class="cls-4" points="185.38 82.11 184.65 81.69 184.12 81.99 184.86 82.42 185.38 82.11"/><polygon class="cls-4" points="184.62 82.56 183.88 82.13 183.36 82.44 184.09 82.86 184.62 82.56"/><polygon class="cls-4" points="184.47 81.58 183.73 81.16 183.21 81.46 183.94 81.89 184.47 81.58"/><polygon class="cls-4" points="183.7 82.03 182.97 81.6 182.44 81.91 183.17 82.33 183.7 82.03"/><polygon class="cls-4" points="188.13 81.93 187.4 81.5 186.87 81.81 187.6 82.23 188.13 81.93"/><polygon class="cls-4" points="187.37 82.37 186.63 81.94 186.1 82.25 186.84 82.67 187.37 82.37"/><polygon class="cls-4" points="187.19 81.38 186.46 80.96 185.93 81.27 186.66 81.69 187.19 81.38"/><polygon class="cls-4" points="186.43 81.83 185.69 81.4 185.16 81.71 185.9 82.13 186.43 81.83"/><polygon class="cls-4" points="186.28 80.85 185.54 80.43 185.01 80.73 185.75 81.16 186.28 80.85"/><polygon class="cls-4" points="185.51 81.3 184.77 80.87 184.24 81.18 184.98 81.6 185.51 81.3"/><polygon class="cls-4" points="185.35 80.32 184.61 79.89 184.08 80.2 184.82 80.62 185.35 80.32"/><polygon class="cls-4" points="184.58 80.76 183.84 80.34 183.32 80.64 184.05 81.07 184.58 80.76"/><polygon class="cls-4" points="189.83 87.34 189.09 86.91 188.57 87.22 189.3 87.64 189.83 87.34"/><polygon class="cls-4" points="188.9 86.8 188.17 86.38 187.64 86.68 188.37 87.11 188.9 86.8"/><polygon class="cls-4" points="184.07 82.38 183.35 82.81 182.81 82.52 183.54 82.08 184.07 82.38"/><polygon class="cls-4" points="183.16 82.92 182.44 83.36 181.91 83.07 182.63 82.63 183.16 82.92"/><polygon class="cls-4" points="182.25 83.48 181.52 83.92 180.99 83.62 181.71 83.19 182.25 83.48"/><polygon class="cls-4" points="181.35 84.02 180.8 84.36 180.26 84.06 180.82 83.73 181.35 84.02"/><polygon class="cls-4" points="187.97 86.27 184.27 84.13 183.74 84.43 187.45 86.57 187.97 86.27"/><polygon class="cls-4" points="194.2 87.34 195.25 86.74 195.25 86.4 194.2 87 194.2 87.34"/><polygon class="cls-4" points="192.99 88.04 194.04 87.44 194.04 87.1 192.99 87.7 192.99 88.04"/><path class="cls-3" d="M197.15,82.56c-.36-3.65-.43-5.93-1.11-7.44s-3.55-2.4-3.55-2.4L185.63,72A22.91,22.91,0,0,0,184,79.31c-.18,2.13,0,6,.06,11.43.08,3.65-2,5.9-.49,7.49,2.34,2.41,7.7,4.09,10.69,3.29,1.79-.48,4-2.54,5.25-4C198.69,92.73,197.67,87.74,197.15,82.56Z" transform="translate(-16.23 -7.02)"/><path class="cls-24" d="M192.34,71.71s-2.67.78-4.24-.44c-2.22-1.74-2.47.7-2.47.7a5.83,5.83,0,0,0,2.8,1.9,6.74,6.74,0,0,0,5.37-.42C193.82,72.25,192.34,71.71,192.34,71.71Z" transform="translate(-16.23 -7.02)"/><path class="cls-12" d="M193.08,64.41c.08.19,1.2-.12,1.19-.35.21-.73.71-2.42.84-3.1a3.35,3.35,0,0,0-.9-3.1c-1.08-1.12-4.84-1.49-6.19-.7a6.55,6.55,0,0,0-3.26,7.59,12.72,12.72,0,0,0,2.92,5.89,5.43,5.43,0,0,0,3.76-4.47c.1-.67-1-2-.22-2.69S192.89,63.92,193.08,64.41Z" transform="translate(-16.23 -7.02)"/><path class="cls-9" d="M207.76,105.76l-.61.5a.7.7,0,0,1-.26.13c.1.54.19,1.15.28,1.85.39,3,1.26,11.88,1.27,12l.88-.46c0-.1-.9-9.16-1.3-12.19C207.94,106.93,207.86,106.33,207.76,105.76Z" transform="translate(-16.23 -7.02)"/><path class="cls-9" d="M208.11,105.47l-.58.48.91,14.26,1.31.76s-.19-6.19-.43-8.51C209.13,110.59,208.4,106.86,208.11,105.47Z" transform="translate(-16.23 -7.02)"/><path class="cls-10" d="M209.33,108.32a14.31,14.31,0,0,0-.67-3.29h0l-.9.73a11.29,11.29,0,0,1,.72,3.24c.39,3,1.26,11.88,1.27,12l.88-.46C210.62,120.42,209.72,111.35,209.33,108.32Z" transform="translate(-16.23 -7.02)"/><path class="cls-6" d="M176.18,104l16.69,9.62s-3.62-9.25-4.82-12.17-2.85-7.28-2.85-7.28l-16.06-8.62Z" transform="translate(-16.23 -7.02)"/><path class="cls-18" d="M211.33,104.73l-12.74,7.36c-4.6,2.65-6.27,2.4-7.74-1.18-1.37-3.3-5.43-14-6.09-15.77l1.6-.93c0,.12,4.44,11.89,5.79,15.18,1.24,3,2.38,3.13,6.44.79l12.74-7.35Z" transform="translate(-16.23 -7.02)"/><polygon class="cls-11" points="153.65 77.72 152.05 78.64 168.54 88.11 170.13 87.19 153.65 77.72"/><path class="cls-14" d="M204.65,87.73a13.55,13.55,0,0,1,3.43.78c1,.51.84,2.73.55,3.52-.09.26-.57,1.72-1.11,1.4s0-1.24,0-1.24-.79.91-1.05.76c-.56-.33.21-1.12.21-1.12l-2-1.43Z" transform="translate(-16.23 -7.02)"/><path class="cls-24" d="M206,87.92a10.58,10.58,0,0,0-3.68-1.49c-.67-2.16-3.11-10.69-6.71-11.89-1.14-.37-2.36,2.44-2,5.23A36.87,36.87,0,0,0,196.23,89a5.85,5.85,0,0,0,3.09,3.34,7.39,7.39,0,0,0,5.62.19C207.55,91.68,208.15,89.23,206,87.92Z" transform="translate(-16.23 -7.02)"/><polygon class="cls-10" points="224.94 96.87 226.11 97.54 230.93 63.02 229.76 62.34 224.94 96.87"/><polygon class="cls-9" points="226.11 97.54 227.35 96.79 232.08 63.05 230.93 63.02 226.11 97.54"/><polygon class="cls-10" points="203.37 84.36 204.54 85.03 209.36 50.51 208.19 49.84 203.37 84.36"/><polygon class="cls-9" points="204.54 85.03 205.78 84.28 210.51 50.54 209.36 50.51 204.54 85.03"/><path class="cls-10" d="M253.93,68.61l3.78,27.08-1.17.68-3.81-27.3A4.46,4.46,0,0,0,253.93,68.61Z" transform="translate(-16.23 -7.02)"/><path class="cls-9" d="M252.27,69.19c.16,0,.31-.08.46-.12l3.81,27.3-1.24-.76-3.71-26.45A2.18,2.18,0,0,0,252.27,69.19Z" transform="translate(-16.23 -7.02)"/><polygon class="cls-10" points="219.71 76.12 218.54 76.8 213.72 42.27 214.9 41.6 219.71 76.12"/><polygon class="cls-9" points="218.54 76.8 217.31 76.04 212.57 42.3 213.72 42.27 218.54 76.8"/><polygon class="cls-21" points="210.6 10.17 210.6 49.1 235.48 63.62 235.48 24.55 210.6 10.17"/><polygon class="cls-4" points="212.75 13.81 212.75 46.02 233.34 58.04 233.34 25.71 212.75 13.81"/><polygon class="cls-17" points="235.48 24.55 236.72 23.86 236.72 62.9 235.48 63.62 235.48 24.55"/><polygon class="cls-7" points="210.6 10.17 211.84 9.49 236.72 23.86 235.48 24.55 210.6 10.17"/><polygon class="cls-7" points="239.09 59.2 236.72 57.68 236.72 61.32 233.82 62.97 233.82 65 237.88 61.97 237.84 59.95 239.09 59.2"/><polygon class="cls-20" points="233.82 64.42 206.53 48.65 206.53 50.17 233.82 66.01 233.82 64.42"/><polygon class="cls-21" points="239.09 59.2 237.84 59.95 237.88 61.97 233.82 64.42 233.82 66.01 239.09 62.86 239.09 59.2"/><polygon class="cls-7" points="233.82 64.42 236.59 62.66 210.61 47.64 210.6 46.35 206.53 48.65 233.82 64.42"/><polygon class="cls-20" points="237.88 61.97 236.72 61.32 236.72 59.32 237.84 59.95 237.88 61.97"/><path class="cls-18" d="M230.75,33.21c0,2.65,1.61,5.73,3.6,6.88v-9.6C232.36,29.34,230.75,30.56,230.75,33.21Z" transform="translate(-16.23 -7.02)"/><path class="cls-8" d="M238,37.37c0-2.65-1.61-5.73-3.6-6.88v9.6C236.34,41.23,238,40,238,37.37Z" transform="translate(-16.23 -7.02)"/><path class="cls-5" d="M243.22,58.22c2,1.15,3.6-.07,3.6-2.72l-7.2-4.15C239.62,54,241.23,57.08,243.22,58.22Z" transform="translate(-16.23 -7.02)"/><path class="cls-7" d="M234.35,43.51V48.3h0l-2.67,1.64a7.35,7.35,0,0,0,2.69,3.17c2,1.15,3.6-.07,3.6-2.72S236.34,44.65,234.35,43.51Z" transform="translate(-16.23 -7.02)"/><path class="cls-5" d="M230.75,46.23a8.81,8.81,0,0,0,.91,3.7l2.67-1.64Z" transform="translate(-16.23 -7.02)"/><path class="cls-18" d="M234.35,43.51a2.37,2.37,0,0,0-2.17-.28,1.68,1.68,0,0,0-.37.21,3.39,3.39,0,0,0-1.06,2.79l3.58,2.06h0L237,46.64A7.26,7.26,0,0,0,234.35,43.51Z" transform="translate(-16.23 -7.02)"/><path class="cls-8" d="M234.35,48.3l3.6,2.08a8.72,8.72,0,0,0-.93-3.74l-2.67,1.64Z" transform="translate(-16.23 -7.02)"/><polygon class="cls-8" points="218.1 41.27 218.12 41.28 218.12 41.26 218.1 41.27"/><path class="cls-18" d="M243.22,35.61c-2-1.15-3.6.07-3.6,2.72l3.6,2.08Z" transform="translate(-16.23 -7.02)"/><path class="cls-8" d="M246.82,42.49c0-2.65-1.61-5.73-3.6-6.88v4.8Z" transform="translate(-16.23 -7.02)"/><path class="cls-5" d="M243.22,45.21v-4.8l-3.6-2.08C239.62,41,241.23,44.06,243.22,45.21Z" transform="translate(-16.23 -7.02)"/><path class="cls-7" d="M243.22,45.21c2,1.14,3.6-.07,3.6-2.72l-3.6-2.08Z" transform="translate(-16.23 -7.02)"/><path class="cls-18" d="M239.62,51.35l3.54,2v-4.8C241.2,47.51,239.62,48.73,239.62,51.35Z" transform="translate(-16.23 -7.02)"/><path class="cls-5" d="M243.22,48.63l-.06,0v4.8l3.66,2.11C246.82,52.85,245.21,49.77,243.22,48.63Z" transform="translate(-16.23 -7.02)"/><polygon class="cls-2" points="230.33 27.11 215.75 18.7 215.75 17.37 230.33 25.79 230.33 27.11"/><path class="cls-13" d="M256.4,61.34c4.48,0,7.2-19.41,7.2-19.41l-.69-1s-2.67-.15-4.75,4.72S254.68,56,254.45,56.1C254.6,57.26,255.5,61.34,256.4,61.34Z" transform="translate(-16.23 -7.02)"/><path class="cls-2" d="M257,105.26s-1,1.06-2.26,2.32-1.57,1.5-2.68,2.59c-.65.63-.12,1.21,1.12,1.16a22.17,22.17,0,0,0,4.92-1.06,24.45,24.45,0,0,0,3.69-1.92,2.45,2.45,0,0,0,1.1-1.39V105Z" transform="translate(-16.23 -7.02)"/><path class="cls-2" d="M272.41,107.69s-.22,2-.36,4.5.21,4.72,1,5,3,.24,4.19-3.24a13.86,13.86,0,0,0,.5-6.86Z" transform="translate(-16.23 -7.02)"/><path class="cls-13" d="M274.89,73.38c.46-7.14-3.48-10.9-3.48-10.9.32-2.41-10.85,1-10.85,1s-2.39,13-3.4,19.76c-1.15,7.75-.65,21.57-.65,21.57s.15,1.69,3,1.68a6.62,6.62,0,0,0,4-1.81l.23-16.15,2.56-12.73s.44,11.88,2.07,15.31c3,6.27,3,17.33,3,17.33s3.75,1.33,6.31,0,2.06-2.72,2.06-2.72a55.61,55.61,0,0,0-3.94-16C275.56,84.11,274.68,76.66,274.89,73.38Z" transform="translate(-16.23 -7.02)"/><path class="cls-8" d="M263.08,41.7s-3.86,3.11-4.32,7.51c-.23,2.18.44,9.54.46,14.37,0,2.7-1.06,10.29-1.06,10.29a24.85,24.85,0,0,0,3.53,1.95,26.93,26.93,0,0,1,.73-4.93s.22,3.39.22,5.25a13.2,13.2,0,0,0,3.93.58c3.57,0,8.89-2.47,8.89-2.47s-1.95-9.4-1.52-12.69c.63-4.89,1.58-12.79,1.41-14.08-.29-2.17-5.19-4.51-5.19-4.51S266.68,40.28,263.08,41.7Z" transform="translate(-16.23 -7.02)"/><path class="cls-13" d="M264.76,41.28A22.86,22.86,0,0,0,261.15,45,7.51,7.51,0,0,0,260,47l1.13,1.11-1.61.77s-.9,6.08.32,8.12a43,43,0,0,1,2.7,7.15A68.78,68.78,0,0,1,265,57.59c.75-1.31,3.57-5,3.57-5l-1.42-2.13,2.31-.75s3.24-4.07,2.91-5.3a4,4,0,0,0-2.84-2.76Z" transform="translate(-16.23 -7.02)"/><path class="cls-3" d="M262.66,45.48a51.76,51.76,0,0,0-1.42,5.28c-.5,2.51,1.32,10.85,1.32,10.85s.82-8.15,2.45-10.47a52.73,52.73,0,0,1,4.46-5.36S264.33,44.84,262.66,45.48Z" transform="translate(-16.23 -7.02)"/><path class="cls-18" d="M263.61,46l-.27,2.14a5.83,5.83,0,0,0-1.53,2.72,57,57,0,0,0,0,6.91l.74,3.84.33-2.57s.58-3.32,1.07-5.38a13,13,0,0,1,.23-1.86,14.9,14.9,0,0,0,.41-3.09l1.34-1.6-1.27-1.49Z" transform="translate(-16.23 -7.02)"/><path class="cls-25" d="M264.45,41.56,264.22,45a9.28,9.28,0,0,0,1.59,1.64c1.22-.38,4.07-3,4.07-3l-.95-5.26Z" transform="translate(-16.23 -7.02)"/><path class="cls-14" d="M269.45,32.52a4.45,4.45,0,0,0-7.32.54c-2.5,3.71-.14,9.77,2.05,9.41a8.58,8.58,0,0,0,5.21-3.29C270.75,37,270.44,33.79,269.45,32.52Z" transform="translate(-16.23 -7.02)"/><path class="cls-4" d="M264.36,42.87l.31,2.75-2.24.91S262.18,43.6,264.36,42.87Z" transform="translate(-16.23 -7.02)"/><path class="cls-4" d="M269.68,42.49a6.17,6.17,0,0,1-2.29,2.19,15.61,15.61,0,0,1-2.72.94l.84,2.52a21.25,21.25,0,0,0,4-2.11S271.2,44,269.68,42.49Z" transform="translate(-16.23 -7.02)"/><path class="cls-2" d="M261.37,34.68c.5-.66.76-1.62,2.45-1,3.7,1.27,3.56,4.35,3.56,4.35a1.77,1.77,0,0,0,.61-.08c.22-.85.58-1,1-.69s.4,2,.4,2a5.75,5.75,0,0,0,1.76-4.08c0-1.6-1.19-4.74-4.1-5.11s-4.7.86-5.36,2.17A3.85,3.85,0,0,0,261.37,34.68Z" transform="translate(-16.23 -7.02)"/><path class="cls-14" d="M273.43,73.64a4.75,4.75,0,0,1-1.13,2.13,9.82,9.82,0,0,1-1.53,2c-.51.36-.64.83-.19.92s1.41-1,1.67-.93c.47,0-.39,2.13-.41,3.31s.68,3,2.12,1.15a10.77,10.77,0,0,0,2-5.13,8.83,8.83,0,0,1,.76-2.24Z" transform="translate(-16.23 -7.02)"/><path class="cls-13" d="M277.78,76.18c.61-2,1.05-11.33,1.38-13.77A43.77,43.77,0,0,0,278,52.33c-1-4.19-1.52-6.45-3.75-6.65-1,.63-1.84,3.77-1.84,7l.86,9.68-.86,12C273.18,74.86,275.77,77,277.78,76.18Z" transform="translate(-16.23 -7.02)"/><path class="cls-17" d="M261.94,59l-.2-.51c-.08-.21-1.51-8-.81-11.26a13.49,13.49,0,0,1,2.31-5,1.79,1.79,0,0,0,.42.19,13,13,0,0,0-2.28,4.91c-.55,2.51.14,9.14.61,10.49.58-1.15,2.65-7,5-9.65A18.87,18.87,0,0,1,270.69,45a10.77,10.77,0,0,0,1.55-1.2.23.23,0,0,1,.32.32A11.51,11.51,0,0,1,271,45.38a18.14,18.14,0,0,0-3.6,3.12c-3,3.29-5.17,10-5.19,10Z" transform="translate(-16.23 -7.02)"/><polygon class="cls-4" points="244.41 49.08 244.1 53.69 244.1 53.7 247.03 55.39 247.34 50.77 244.41 49.08"/><polygon class="cls-18" points="244.6 49.51 244.57 50.03 247.06 51.47 247.09 50.95 244.6 49.51"/><polygon class="cls-3" points="245.48 51 245.26 54.03 246.77 54.9 246.99 51.87 245.48 51"/><path class="cls-14" d="M249.58,43.93s.12-2.15.23-3.08c.16-1.29,1-1.29,1.17.29s.16,2.89.17,3.13S253.33,50,253.33,50l-2.48,1.33a5.1,5.1,0,0,0-1.42-1.94c-.65-.47-1.74-1-2-1.84a1.64,1.64,0,0,1,.33-1.76C248,44.68,248.51,43.78,249.58,43.93Z" transform="translate(-16.23 -7.02)"/><path class="cls-13" d="M252.93,48.14s3.23,4.66,3.9,6.62,1.08,5.26,0,6.3-3.1-.81-4.25-2-2.69-8.75-2.69-8.75a3.5,3.5,0,0,0,2-.94A4.19,4.19,0,0,0,252.93,48.14Z" transform="translate(-16.23 -7.02)"/><polygon class="cls-2" points="186.5 22.18 186.91 21.98 176.71 0 168.12 11.16 168.48 11.44 176.61 0.88 186.5 22.18"/><polygon class="cls-3" points="162.66 1.84 162.66 31.54 190.75 47.93 190.75 18.07 162.66 1.84"/><polygon class="cls-4" points="164.46 5.51 164.46 30.87 189.15 45.14 189.15 19.66 164.46 5.51"/><polygon class="cls-18" points="187.68 42.76 187.96 42.67 184.47 31.34 182.38 34.33 178.47 23.75 175.13 25.97 168.82 9.91 168.55 10.01 174.99 26.41 178.33 24.19 182.3 34.94 184.37 31.99 187.68 42.76"/><polygon class="cls-8" points="187.69 42.77 187.96 42.67 182.11 26.94 179.78 29.62 174.28 15.66 167.07 24.46 167.29 24.64 174.2 16.23 179.69 30.17 182.01 27.49 187.69 42.77"/><polygon class="cls-7" points="187.69 42.77 187.95 42.66 182.56 30.68 179.76 36.19 177.04 28.5 174.34 30.97 168.16 15.89 167.9 16 174.23 31.46 176.92 29 179.71 36.92 182.54 31.34 187.69 42.77"/><polygon class="cls-2" points="187.96 42.96 187.96 21.04 187.68 21.04 187.68 42.47 165.66 29.75 165.51 30 187.96 42.96"/><polygon class="cls-8" points="186 20.51 186.15 20.26 181.24 17.45 181.09 17.7 186 20.51"/><polygon class="cls-7" points="186 22.2 186.15 21.95 181.24 19.14 181.09 19.39 186 22.2"/><polygon class="cls-18" points="186 23.98 186.15 23.73 181.24 20.92 181.09 21.17 186 23.98"/><polygon class="cls-2" points="82.99 22.18 83.41 21.98 73.21 0 64.62 11.16 64.98 11.44 73.11 0.88 82.99 22.18"/><polygon class="cls-3" points="59.23 1.65 59.23 29.09 87.32 45.48 87.32 17.88 59.23 1.65"/><polygon class="cls-4" points="60.71 5.04 60.71 28.28 85.36 42.67 85.36 19.28 60.71 5.04"/><polygon class="cls-19" points="77.55 34.75 74.08 32.75 74.08 25.18 77.55 27.18 77.55 34.75"/><polygon class="cls-8" points="77.55 22.82 77.55 27.18 74.08 25.18 74.08 20.81 77.55 22.82"/><polygon class="cls-19" points="82.36 37.53 78.89 35.52 78.89 25.52 82.36 27.52 82.36 37.53"/><polygon class="cls-8" points="82.36 21.75 82.36 27.52 78.89 25.52 78.89 19.75 82.36 21.75"/><polygon class="cls-19" points="72.6 31.92 69.13 29.92 69.13 23.98 72.6 25.99 72.6 31.92"/><polygon class="cls-8" points="72.6 22.57 72.6 27.27 69.13 25.26 69.13 20.56 72.6 22.57"/><polygon class="cls-19" points="67.66 29.04 64.18 27.04 64.18 24.09 67.66 26.09 67.66 29.04"/><polygon class="cls-8" points="67.66 24.39 67.66 27.57 64.18 25.56 64.18 22.38 67.66 24.39"/><polygon class="cls-2" points="77.55 17.97 62.97 9.55 62.97 8.23 77.55 16.64 77.55 17.97"/></svg>